<svg width="55" height="96" viewBox="0 0 55 96" fill="none" xmlns="http://www.w3.org/2000/svg">
<path fill-rule="evenodd" clip-rule="evenodd" d="M0.0749763 1.15847C22.0719 -0.495428 43.3455 10.9239 50.9534 28.5455C58.308 45.5803 52.9807 68.6756 22.5663 91.6735C23.7098 89.6777 24.795 86.8144 25.0364 83.193L24.0386 83.1265C23.6544 88.8898 21.0378 92.5699 19.7771 93.722C19.3857 93.8984 19.052 94.0712 18.784 94.2288L19.291 95.0908C20.9874 94.093 25.7448 92.3598 30.923 93.5781L31.152 92.6046C28.1012 91.8869 25.1949 92.1311 22.8959 92.6773C53.7492 69.4591 59.5048 45.8294 51.8715 28.1492C44.0628 10.0625 22.3364 -1.51814 0 0.161287L0.0749763 1.15847Z" fill="black"/>
</svg>
