<svg width="133" height="56" viewBox="0 0 133 56" fill="none" xmlns="http://www.w3.org/2000/svg">
<path fill-rule="evenodd" clip-rule="evenodd" d="M118 0H0V56H118V0ZM5.48177 6.46065C5.48177 7.86628 6.62125 9.00576 8.02687 9.00576C9.4325 9.00576 10.572 7.86628 10.572 6.46065C10.572 5.05503 9.4325 3.91555 8.02687 3.91555C6.62125 3.91555 5.48177 5.05503 5.48177 6.46065ZM8.02689 17.6199C6.62126 17.6199 5.48178 16.4804 5.48178 15.0748C5.48178 13.6692 6.62126 12.5297 8.02689 12.5297C9.43251 12.5297 10.572 13.6692 10.572 15.0748C10.572 16.4804 9.43251 17.6199 8.02689 17.6199ZM5.48178 23.689C5.48178 25.0946 6.62126 26.2341 8.02689 26.2341C9.43251 26.2341 10.572 25.0946 10.572 23.689C10.572 22.2834 9.43251 21.1439 8.02689 21.1439C6.62126 21.1439 5.48178 22.2834 5.48178 23.689ZM8.02689 34.8483C6.62126 34.8483 5.48178 33.7088 5.48178 32.3032C5.48178 30.8976 6.62126 29.7581 8.02689 29.7581C9.43251 29.7581 10.572 30.8976 10.572 32.3032C10.572 33.7088 9.43251 34.8483 8.02689 34.8483ZM5.48178 40.9174C5.48178 42.323 6.62126 43.4625 8.02689 43.4625C9.43251 43.4625 10.572 42.323 10.572 40.9174C10.572 39.5118 9.43251 38.3723 8.02689 38.3723C6.62126 38.3723 5.48178 39.5118 5.48178 40.9174ZM8.02689 52.0767C6.62126 52.0767 5.48178 50.9372 5.48178 49.5316C5.48178 48.126 6.62126 46.9865 8.02689 46.9865C9.43251 46.9865 10.572 48.126 10.572 49.5316C10.572 50.9372 9.43251 52.0767 8.02689 52.0767Z" fill="#F9F5D2"/>
<path d="M34.166 15.23C33.802 15.1273 33.5313 15.0527 33.354 15.006C33.1767 14.95 32.9993 14.8567 32.822 14.726C32.4767 14.614 32.1967 14.4787 31.982 14.32C31.7673 14.152 31.5527 13.9513 31.338 13.718L30.82 13.102L30.722 12.682C30.7967 12.6633 30.904 12.612 31.044 12.528C31.184 12.4347 31.2633 12.3833 31.282 12.374C31.3847 12.29 31.5013 12.206 31.632 12.122C31.7627 12.0287 31.94 11.9167 32.164 11.786C32.388 11.6553 32.6867 11.4873 33.06 11.282C33.452 11.0953 33.7227 10.9507 33.872 10.848C34.0213 10.7453 34.152 10.6567 34.264 10.582C34.3293 10.5353 34.404 10.484 34.488 10.428C34.5813 10.372 34.6467 10.3487 34.684 10.358C34.74 10.3487 34.782 10.3533 34.81 10.372C34.838 10.3813 34.8707 10.4047 34.908 10.442C34.9827 10.5353 35.0667 10.596 35.16 10.624C35.2627 10.6427 35.314 10.6893 35.314 10.764C35.314 10.764 35.2953 10.8013 35.258 10.876C35.2207 10.9413 35.1647 10.9973 35.09 11.044C34.95 11.1187 34.8007 11.1933 34.642 11.268C34.4833 11.3427 34.2827 11.4453 34.04 11.576C33.7973 11.7067 33.466 11.898 33.046 12.15C32.794 12.2993 32.57 12.4253 32.374 12.528C32.1873 12.6307 32.0427 12.7287 31.94 12.822C31.8467 12.906 31.8093 13.0087 31.828 13.13C31.912 13.3167 32.1733 13.5267 32.612 13.76C33.06 13.9933 33.6387 14.2173 34.348 14.432C34.6 14.488 34.8193 14.5627 35.006 14.656C35.1927 14.7493 35.3187 14.8427 35.384 14.936C35.4493 15.0293 35.4167 15.1133 35.286 15.188C35.2393 15.1973 35.1647 15.216 35.062 15.244C34.9687 15.2627 34.8473 15.2767 34.698 15.286C34.558 15.286 34.3807 15.2673 34.166 15.23ZM37.614 15.79C37.4927 15.79 37.3947 15.7667 37.32 15.72C37.2547 15.6733 37.1707 15.608 37.068 15.524C36.8907 15.3373 36.7647 15.16 36.69 14.992C36.6154 14.8147 36.592 14.6467 36.62 14.488C36.648 14.4133 36.6574 14.3433 36.648 14.278C36.648 14.2033 36.648 14.166 36.648 14.166C36.6014 14.1193 36.5874 14.0913 36.606 14.082C36.6247 14.0633 36.6434 14.0353 36.662 13.998C36.718 13.998 36.7367 13.9467 36.718 13.844C36.6994 13.7693 36.7367 13.606 36.83 13.354C36.9234 13.102 37.04 12.864 37.18 12.64C37.236 12.5467 37.32 12.4253 37.432 12.276C37.544 12.1173 37.6654 11.9633 37.796 11.814C37.936 11.6553 38.062 11.5293 38.174 11.436C38.4074 11.24 38.6127 11.0953 38.79 11.002C38.9674 10.9087 39.1587 10.8387 39.364 10.792C39.5694 10.7453 39.7094 10.722 39.784 10.722C39.868 10.722 39.98 10.7967 40.12 10.946C40.3347 11.0393 40.4887 11.1513 40.582 11.282C40.6847 11.4127 40.75 11.604 40.778 11.856C40.806 12.136 40.7827 12.458 40.708 12.822C40.6427 13.1767 40.4234 13.62 40.05 14.152C39.8167 14.488 39.602 14.74 39.406 14.908C39.21 15.0667 38.9767 15.2253 38.706 15.384C38.51 15.5147 38.3327 15.6127 38.174 15.678C38.0154 15.734 37.8287 15.7713 37.614 15.79ZM38.958 14.306C39.182 14.054 39.3594 13.816 39.49 13.592C39.63 13.368 39.7607 13.0833 39.882 12.738C39.9194 12.6353 39.9427 12.5093 39.952 12.36C39.9614 12.2013 39.9567 12.0567 39.938 11.926C39.9287 11.786 39.896 11.7067 39.84 11.688C39.728 11.6227 39.5927 11.604 39.434 11.632C39.2754 11.6507 39.1027 11.7393 38.916 11.898C38.6267 12.1407 38.3747 12.444 38.16 12.808C37.9454 13.1627 37.7354 13.5687 37.53 14.026C37.39 14.362 37.3574 14.6327 37.432 14.838C37.516 15.034 37.6887 15.104 37.95 15.048C38.2207 14.9827 38.5567 14.7353 38.958 14.306ZM42.0036 16C41.8263 16.0467 41.6816 16.0093 41.5696 15.888C41.4669 15.7667 41.4063 15.58 41.3876 15.328C41.3689 15.076 41.3969 14.7773 41.4716 14.432C41.5183 14.32 41.5556 14.2127 41.5836 14.11C41.6116 13.998 41.6256 13.9093 41.6256 13.844C41.6443 13.7507 41.6816 13.6153 41.7376 13.438C41.7936 13.2513 41.8543 13.06 41.9196 12.864C41.9849 12.668 42.0456 12.4953 42.1016 12.346C42.1669 12.1873 42.2089 12.0893 42.2276 12.052C42.2649 12.052 42.2976 12.0193 42.3256 11.954C42.3536 11.8887 42.3676 11.8233 42.3676 11.758C42.3676 11.6833 42.3816 11.5993 42.4096 11.506C42.4469 11.4127 42.4843 11.3473 42.5216 11.31C42.5216 11.2633 42.5309 11.212 42.5496 11.156C42.5776 11.0907 42.5916 11.0393 42.5916 11.002C42.5916 10.9647 42.6009 10.9273 42.6196 10.89C42.6476 10.8527 42.6616 10.8153 42.6616 10.778C42.7269 10.6567 42.8109 10.4653 42.9136 10.204C43.0256 9.93333 43.1423 9.63467 43.2636 9.308C43.3943 8.98133 43.5156 8.65933 43.6276 8.342C43.7396 8.02467 43.8283 7.75867 43.8936 7.544C43.9683 7.32 44.0056 7.18467 44.0056 7.138C44.0056 7.06333 44.0243 7.00733 44.0616 6.97C44.0989 6.93267 44.1549 6.914 44.2296 6.914C44.2576 6.886 44.2903 6.86733 44.3276 6.858C44.3743 6.84867 44.4163 6.844 44.4536 6.844C44.4536 6.844 44.4723 6.86267 44.5096 6.9C44.5469 6.93733 44.6029 6.99333 44.6776 7.068C44.7523 7.13333 44.7943 7.208 44.8036 7.292C44.8223 7.376 44.8316 7.474 44.8316 7.586C44.8316 7.70733 44.8176 7.81467 44.7896 7.908C44.7616 8.00133 44.7056 8.13667 44.6216 8.314C44.5376 8.49133 44.4069 8.76667 44.2296 9.14C44.1549 9.32667 44.0756 9.504 43.9916 9.672C43.9076 9.83067 43.8656 9.92867 43.8656 9.966C43.8656 10.0033 43.8469 10.0593 43.8096 10.134C43.7816 10.2087 43.7489 10.302 43.7116 10.414C43.6743 10.4887 43.6229 10.6007 43.5576 10.75C43.4923 10.89 43.4223 11.044 43.3476 11.212C43.2823 11.3707 43.2263 11.5107 43.1796 11.632C43.1329 11.744 43.1096 11.8093 43.1096 11.828C43.1096 11.8653 43.1049 11.9027 43.0956 11.94C43.0956 11.9773 43.0769 12.0147 43.0396 12.052C43.0023 12.052 42.9789 12.08 42.9696 12.136C42.9696 12.1827 42.9696 12.206 42.9696 12.206C42.9696 12.2993 42.8949 12.5467 42.7456 12.948C42.5963 13.4613 42.4563 13.9327 42.3256 14.362C42.2043 14.7913 42.1436 15.1367 42.1436 15.398C42.1436 15.622 42.1389 15.7713 42.1296 15.846C42.1203 15.9113 42.0783 15.9627 42.0036 16ZM45.1528 15.398C45.0968 15.4073 45.0548 15.4027 45.0268 15.384C44.9988 15.356 44.9708 15.3233 44.9428 15.286C44.8588 15.1927 44.7655 15.132 44.6628 15.104C44.5695 15.0667 44.5368 15.0153 44.5648 14.95C44.5648 14.95 44.5835 14.9173 44.6208 14.852C44.6582 14.7867 44.7095 14.726 44.7748 14.67C44.9335 14.5953 45.0922 14.53 45.2508 14.474C45.4188 14.4087 45.6288 14.32 45.8808 14.208C46.1422 14.096 46.4875 13.9327 46.9168 13.718C47.1782 13.578 47.4022 13.466 47.5888 13.382C47.7848 13.298 47.9342 13.214 48.0368 13.13C48.1488 13.0367 48.2002 12.9293 48.1908 12.808C48.1162 12.6213 47.8688 12.3973 47.4488 12.136C47.0288 11.8747 46.4642 11.6133 45.7548 11.352C45.5215 11.268 45.3115 11.1747 45.1248 11.072C44.9382 10.9693 44.8168 10.8713 44.7608 10.778C44.7048 10.6753 44.7468 10.5913 44.8868 10.526C44.9428 10.5167 45.0175 10.5073 45.1108 10.498C45.2042 10.4793 45.3255 10.4747 45.4748 10.484C45.6335 10.484 45.8155 10.5167 46.0208 10.582C46.3662 10.7033 46.6228 10.792 46.7908 10.848C46.9682 10.904 47.1455 11.0067 47.3228 11.156C47.6495 11.296 47.9155 11.4547 48.1208 11.632C48.3262 11.8093 48.5268 12.0287 48.7228 12.29L49.1988 12.934L49.2688 13.354C49.1942 13.3633 49.0822 13.41 48.9328 13.494C48.7835 13.5687 48.6995 13.6107 48.6808 13.62C48.5782 13.6947 48.4568 13.7693 48.3168 13.844C48.1768 13.9187 47.9902 14.012 47.7568 14.124C47.5328 14.236 47.2295 14.3853 46.8468 14.572C46.4362 14.7213 46.1562 14.8473 46.0068 14.95C45.8575 15.0527 45.7175 15.1367 45.5868 15.202C45.5215 15.2487 45.4422 15.2953 45.3488 15.342C45.2648 15.3887 45.1995 15.4073 45.1528 15.398ZM54.5098 33.23C54.1458 33.1273 53.8751 33.0527 53.6978 33.006C53.5204 32.95 53.3431 32.8567 53.1658 32.726C52.8204 32.614 52.5404 32.4787 52.3258 32.32C52.1111 32.152 51.8964 31.9513 51.6818 31.718L51.1638 31.102L51.0658 30.682C51.1404 30.6633 51.2478 30.612 51.3878 30.528C51.5278 30.4347 51.6071 30.3833 51.6258 30.374C51.7284 30.29 51.8451 30.206 51.9758 30.122C52.1064 30.0287 52.2838 29.9167 52.5078 29.786C52.7318 29.6553 53.0304 29.4873 53.4038 29.282C53.7958 29.0953 54.0664 28.9507 54.2158 28.848C54.3651 28.7453 54.4958 28.6567 54.6078 28.582C54.6731 28.5353 54.7478 28.484 54.8318 28.428C54.9251 28.372 54.9904 28.3487 55.0278 28.358C55.0838 28.3487 55.1258 28.3533 55.1538 28.372C55.1818 28.3813 55.2144 28.4047 55.2518 28.442C55.3264 28.5353 55.4104 28.596 55.5038 28.624C55.6064 28.6427 55.6578 28.6893 55.6578 28.764C55.6578 28.764 55.6391 28.8013 55.6018 28.876C55.5644 28.9413 55.5084 28.9973 55.4338 29.044C55.2938 29.1187 55.1444 29.1933 54.9858 29.268C54.8271 29.3427 54.6264 29.4453 54.3838 29.576C54.1411 29.7067 53.8098 29.898 53.3898 30.15C53.1378 30.2993 52.9138 30.4253 52.7178 30.528C52.5311 30.6307 52.3864 30.7287 52.2838 30.822C52.1904 30.906 52.1531 31.0087 52.1718 31.13C52.2558 31.3167 52.5171 31.5267 52.9558 31.76C53.4038 31.9933 53.9824 32.2173 54.6918 32.432C54.9438 32.488 55.1631 32.5627 55.3498 32.656C55.5364 32.7493 55.6624 32.8427 55.7278 32.936C55.7931 33.0293 55.7604 33.1133 55.6298 33.188C55.5831 33.1973 55.5084 33.216 55.4058 33.244C55.3124 33.2627 55.1911 33.2767 55.0418 33.286C54.9018 33.286 54.7244 33.2673 54.5098 33.23ZM57.4118 34C57.2345 34.0467 57.0898 34.0093 56.9778 33.888C56.8751 33.7667 56.8145 33.58 56.7958 33.328C56.7771 33.076 56.8051 32.7773 56.8798 32.432C56.9265 32.32 56.9638 32.2127 56.9918 32.11C57.0198 31.998 57.0338 31.9093 57.0338 31.844C57.0525 31.7507 57.0898 31.6153 57.1458 31.438C57.2018 31.2513 57.2625 31.06 57.3278 30.864C57.3931 30.668 57.4538 30.4953 57.5098 30.346C57.5751 30.1873 57.6171 30.0893 57.6358 30.052C57.6731 30.052 57.7058 30.0193 57.7338 29.954C57.7618 29.8887 57.7758 29.8233 57.7758 29.758C57.7758 29.6833 57.7898 29.5993 57.8178 29.506C57.8551 29.4127 57.8925 29.3473 57.9298 29.31C57.9298 29.2633 57.9391 29.212 57.9578 29.156C57.9858 29.0907 57.9998 29.0393 57.9998 29.002C57.9998 28.9647 58.0091 28.9273 58.0278 28.89C58.0558 28.8527 58.0698 28.8153 58.0698 28.778C58.1351 28.6567 58.2191 28.4653 58.3218 28.204C58.4338 27.9333 58.5505 27.6347 58.6718 27.308C58.8025 26.9813 58.9238 26.6593 59.0358 26.342C59.1478 26.0247 59.2365 25.7587 59.3018 25.544C59.3765 25.32 59.4138 25.1847 59.4138 25.138C59.4138 25.0633 59.4325 25.0073 59.4698 24.97C59.5071 24.9327 59.5631 24.914 59.6378 24.914C59.6658 24.886 59.6985 24.8673 59.7358 24.858C59.7825 24.8487 59.8245 24.844 59.8618 24.844C59.8618 24.844 59.8805 24.8627 59.9178 24.9C59.9551 24.9373 60.0111 24.9933 60.0858 25.068C60.1605 25.1333 60.2025 25.208 60.2118 25.292C60.2305 25.376 60.2398 25.474 60.2398 25.586C60.2398 25.7073 60.2258 25.8147 60.1978 25.908C60.1698 26.0013 60.1138 26.1367 60.0298 26.314C59.9458 26.4913 59.8151 26.7667 59.6378 27.14C59.5631 27.3267 59.4838 27.504 59.3998 27.672C59.3158 27.8307 59.2738 27.9287 59.2738 27.966C59.2738 28.0033 59.2551 28.0593 59.2178 28.134C59.1898 28.2087 59.1571 28.302 59.1198 28.414C59.0825 28.4887 59.0311 28.6007 58.9658 28.75C58.9005 28.89 58.8305 29.044 58.7558 29.212C58.6905 29.3707 58.6345 29.5107 58.5878 29.632C58.5411 29.744 58.5178 29.8093 58.5178 29.828C58.5178 29.8653 58.5131 29.9027 58.5038 29.94C58.5038 29.9773 58.4851 30.0147 58.4478 30.052C58.4105 30.052 58.3871 30.08 58.3778 30.136C58.3778 30.1827 58.3778 30.206 58.3778 30.206C58.3778 30.2993 58.3031 30.5467 58.1538 30.948C58.0045 31.4613 57.8645 31.9327 57.7338 32.362C57.6125 32.7913 57.5518 33.1367 57.5518 33.398C57.5518 33.622 57.5471 33.7713 57.5378 33.846C57.5285 33.9113 57.4865 33.9627 57.4118 34ZM59.511 33.552C59.4364 33.4773 59.3804 33.384 59.343 33.272C59.315 33.16 59.3057 33.048 59.315 32.936C59.3244 32.824 59.3477 32.7307 59.385 32.656C59.385 32.5813 59.3944 32.5253 59.413 32.488C59.441 32.4413 59.4504 32.3993 59.441 32.362C59.4317 32.3247 59.441 32.2593 59.469 32.166C59.497 32.0727 59.525 31.984 59.553 31.9C59.6184 31.7507 59.6884 31.5733 59.763 31.368C59.8377 31.1533 59.9077 30.9433 59.973 30.738C60.0384 30.5327 60.0944 30.3553 60.141 30.206C60.1877 30.0567 60.2157 29.9633 60.225 29.926C60.225 29.814 60.2997 29.7533 60.449 29.744C60.561 29.7067 60.645 29.7067 60.701 29.744C60.757 29.772 60.8317 29.8607 60.925 30.01C60.9997 30.0847 61.0277 30.1967 61.009 30.346C60.9904 30.4953 60.9297 30.682 60.827 30.906C60.7897 30.9807 60.743 31.088 60.687 31.228C60.6404 31.368 60.6077 31.494 60.589 31.606C60.5517 31.6807 60.505 31.788 60.449 31.928C60.4024 32.0587 60.3604 32.1847 60.323 32.306C60.3044 32.3527 60.2857 32.4227 60.267 32.516C60.2484 32.6 60.225 32.6933 60.197 32.796C60.169 32.8893 60.1317 32.9733 60.085 33.048C60.001 33.4307 59.9217 33.6547 59.847 33.72C59.7817 33.7853 59.6697 33.7293 59.511 33.552ZM60.869 27.868C60.8224 27.8213 60.7804 27.756 60.743 27.672C60.7057 27.5787 60.6824 27.4947 60.673 27.42C60.6637 27.336 60.673 27.294 60.701 27.294C60.7757 27.2847 60.8644 27.2053 60.967 27.056C61.0697 26.9067 61.1117 26.776 61.093 26.664C61.093 26.6267 61.107 26.594 61.135 26.566C61.163 26.5287 61.1957 26.5053 61.233 26.496C61.345 26.4213 61.4524 26.412 61.555 26.468C61.667 26.5147 61.7697 26.6127 61.863 26.762C61.947 26.9393 61.9704 27.0887 61.933 27.21C61.8957 27.322 61.793 27.4807 61.625 27.686C61.485 27.8727 61.3544 27.9753 61.233 27.994C61.121 28.0127 60.9997 27.9707 60.869 27.868ZM63.1724 33.398C63.1164 33.4073 63.0744 33.4027 63.0464 33.384C63.0184 33.356 62.9904 33.3233 62.9624 33.286C62.8784 33.1927 62.785 33.132 62.6824 33.104C62.589 33.0667 62.5564 33.0153 62.5844 32.95C62.5844 32.95 62.603 32.9173 62.6404 32.852C62.6777 32.7867 62.729 32.726 62.7944 32.67C62.953 32.5953 63.1117 32.53 63.2704 32.474C63.4384 32.4087 63.6484 32.32 63.9004 32.208C64.1617 32.096 64.507 31.9327 64.9364 31.718C65.1977 31.578 65.4217 31.466 65.6084 31.382C65.8044 31.298 65.9537 31.214 66.0564 31.13C66.1684 31.0367 66.2197 30.9293 66.2104 30.808C66.1357 30.6213 65.8884 30.3973 65.4684 30.136C65.0484 29.8747 64.4837 29.6133 63.7744 29.352C63.541 29.268 63.331 29.1747 63.1444 29.072C62.9577 28.9693 62.8364 28.8713 62.7804 28.778C62.7244 28.6753 62.7664 28.5913 62.9064 28.526C62.9624 28.5167 63.037 28.5073 63.1304 28.498C63.2237 28.4793 63.345 28.4747 63.4944 28.484C63.653 28.484 63.835 28.5167 64.0404 28.582C64.3857 28.7033 64.6424 28.792 64.8104 28.848C64.9877 28.904 65.165 29.0067 65.3424 29.156C65.669 29.296 65.935 29.4547 66.1404 29.632C66.3457 29.8093 66.5464 30.0287 66.7424 30.29L67.2184 30.934L67.2884 31.354C67.2137 31.3633 67.1017 31.41 66.9524 31.494C66.803 31.5687 66.719 31.6107 66.7004 31.62C66.5977 31.6947 66.4764 31.7693 66.3364 31.844C66.1964 31.9187 66.0097 32.012 65.7764 32.124C65.5524 32.236 65.249 32.3853 64.8664 32.572C64.4557 32.7213 64.1757 32.8473 64.0264 32.95C63.877 33.0527 63.737 33.1367 63.6064 33.202C63.541 33.2487 63.4617 33.2953 63.3684 33.342C63.2844 33.3887 63.219 33.4073 63.1724 33.398ZM72.349 33.272C72.1717 33.3373 72.0224 33.37 71.901 33.37C71.789 33.3607 71.663 33.3047 71.523 33.202C71.3457 33.034 71.285 32.866 71.341 32.698C71.4064 32.5207 71.5604 32.348 71.803 32.18C71.971 32.0773 72.0924 32.0213 72.167 32.012C72.251 32.0027 72.377 32.0353 72.545 32.11C72.825 32.2873 72.9464 32.4833 72.909 32.698C72.881 32.9127 72.6944 33.104 72.349 33.272ZM75.1244 33.272C74.9471 33.3373 74.7978 33.37 74.6764 33.37C74.5644 33.3607 74.4384 33.3047 74.2984 33.202C74.1211 33.034 74.0604 32.866 74.1164 32.698C74.1818 32.5207 74.3358 32.348 74.5784 32.18C74.7464 32.0773 74.8678 32.0213 74.9424 32.012C75.0264 32.0027 75.1524 32.0353 75.3204 32.11C75.6004 32.2873 75.7218 32.4833 75.6844 32.698C75.6564 32.9127 75.4698 33.104 75.1244 33.272ZM77.8998 33.272C77.7225 33.3373 77.5731 33.37 77.4518 33.37C77.3398 33.3607 77.2138 33.3047 77.0738 33.202C76.8965 33.034 76.8358 32.866 76.8918 32.698C76.9571 32.5207 77.1111 32.348 77.3538 32.18C77.5218 32.0773 77.6431 32.0213 77.7178 32.012C77.8018 32.0027 77.9278 32.0353 78.0958 32.11C78.3758 32.2873 78.4971 32.4833 78.4598 32.698C78.4318 32.9127 78.2451 33.104 77.8998 33.272ZM87.0898 33.23C86.7258 33.1273 86.4552 33.0527 86.2778 33.006C86.1005 32.95 85.9232 32.8567 85.7458 32.726C85.4005 32.614 85.1205 32.4787 84.9058 32.32C84.6912 32.152 84.4765 31.9513 84.2618 31.718L83.7438 31.102L83.6458 30.682C83.7205 30.6633 83.8278 30.612 83.9678 30.528C84.1078 30.4347 84.1872 30.3833 84.2058 30.374C84.3085 30.29 84.4252 30.206 84.5558 30.122C84.6865 30.0287 84.8638 29.9167 85.0878 29.786C85.3118 29.6553 85.6105 29.4873 85.9838 29.282C86.3758 29.0953 86.6465 28.9507 86.7958 28.848C86.9452 28.7453 87.0758 28.6567 87.1878 28.582C87.2532 28.5353 87.3278 28.484 87.4118 28.428C87.5052 28.372 87.5705 28.3487 87.6078 28.358C87.6638 28.3487 87.7058 28.3533 87.7338 28.372C87.7618 28.3813 87.7945 28.4047 87.8318 28.442C87.9065 28.5353 87.9905 28.596 88.0838 28.624C88.1865 28.6427 88.2378 28.6893 88.2378 28.764C88.2378 28.764 88.2192 28.8013 88.1818 28.876C88.1445 28.9413 88.0885 28.9973 88.0138 29.044C87.8738 29.1187 87.7245 29.1933 87.5658 29.268C87.4072 29.3427 87.2065 29.4453 86.9638 29.576C86.7212 29.7067 86.3898 29.898 85.9698 30.15C85.7178 30.2993 85.4938 30.4253 85.2978 30.528C85.1112 30.6307 84.9665 30.7287 84.8638 30.822C84.7705 30.906 84.7332 31.0087 84.7518 31.13C84.8358 31.3167 85.0972 31.5267 85.5358 31.76C85.9838 31.9933 86.5625 32.2173 87.2718 32.432C87.5238 32.488 87.7432 32.5627 87.9298 32.656C88.1165 32.7493 88.2425 32.8427 88.3078 32.936C88.3732 33.0293 88.3405 33.1133 88.2098 33.188C88.1632 33.1973 88.0885 33.216 87.9858 33.244C87.8925 33.2627 87.7712 33.2767 87.6218 33.286C87.4818 33.286 87.3045 33.2673 87.0898 33.23ZM89.1099 35.316C88.8299 35.3253 88.6712 35.176 88.6339 34.868C88.5965 34.56 88.6899 34.1633 88.9139 33.678C88.9699 33.5753 89.0259 33.4773 89.0819 33.384C89.1379 33.2813 89.1705 33.1973 89.1799 33.132C89.2079 33.076 89.2825 32.9313 89.4039 32.698C89.5345 32.4553 89.6885 32.166 89.8659 31.83C90.0525 31.494 90.2439 31.144 90.4399 30.78C90.6452 30.416 90.8365 30.0753 91.0139 29.758C91.1912 29.4313 91.3405 29.1607 91.4619 28.946C91.5832 28.7313 91.6532 28.6147 91.6719 28.596C91.7092 28.6053 91.7465 28.582 91.7839 28.526C91.8305 28.4607 91.8585 28.3953 91.8679 28.33C91.8865 28.2553 91.9192 28.176 91.9659 28.092C92.0219 28.008 92.0685 27.9567 92.1059 27.938C92.1245 27.8913 92.1479 27.84 92.1759 27.784C92.2132 27.728 92.2365 27.6813 92.2459 27.644C92.2552 27.6067 92.2739 27.574 92.3019 27.546C92.3299 27.5087 92.3485 27.4713 92.3579 27.434C92.4325 27.35 92.5305 27.2193 92.6519 27.042C92.7732 26.8553 92.9085 26.6453 93.0579 26.412C93.2165 26.1787 93.3705 25.9407 93.5199 25.698C93.6785 25.4553 93.8232 25.2267 93.9539 25.012C94.0845 24.7973 94.1919 24.6153 94.2759 24.466C94.3599 24.3167 94.4065 24.2233 94.4159 24.186C94.4439 24.046 94.5372 23.99 94.6959 24.018C94.7425 23.9807 94.8172 23.9713 94.9199 23.99C94.9199 23.99 94.9292 24.0133 94.9479 24.06C94.9759 24.0973 95.0225 24.1627 95.0879 24.256C95.1532 24.34 95.1812 24.424 95.1719 24.508C95.1719 24.592 95.1579 24.6853 95.1299 24.788C95.1112 24.9093 95.0785 25.0167 95.0319 25.11C94.9852 25.194 94.9012 25.3153 94.7799 25.474C94.6585 25.6233 94.4719 25.8613 94.2199 26.188C94.1639 26.272 94.1032 26.356 94.0379 26.44C93.9819 26.5147 93.9259 26.5847 93.8699 26.65C93.8232 26.706 93.7859 26.7573 93.7579 26.804C93.7299 26.8413 93.7159 26.8693 93.7159 26.888C93.7065 26.9253 93.6739 26.9813 93.6179 27.056C93.5712 27.1213 93.5199 27.2053 93.4639 27.308C93.4079 27.3733 93.3332 27.4713 93.2399 27.602C93.1465 27.7327 93.0485 27.868 92.9459 28.008C92.8525 28.148 92.7685 28.274 92.6939 28.386C92.6192 28.4887 92.5819 28.5493 92.5819 28.568C92.5725 28.596 92.5585 28.6287 92.5399 28.666C92.5305 28.7033 92.5025 28.736 92.4559 28.764C92.4185 28.7547 92.3905 28.778 92.3719 28.834C92.3625 28.8807 92.3579 28.904 92.3579 28.904C92.3579 28.9787 92.2365 29.2073 91.9939 29.59C91.8912 29.7767 91.7372 30.0567 91.5319 30.43C91.3359 30.8033 91.1165 31.2187 90.8739 31.676C90.6405 32.124 90.4119 32.5673 90.1879 33.006C89.9639 33.4353 89.7725 33.8087 89.6139 34.126C89.4645 34.4433 89.3805 34.6533 89.3619 34.756C89.3245 34.9707 89.2919 35.1107 89.2639 35.176C89.2359 35.2507 89.1845 35.2973 89.1099 35.316ZM94.613 34C94.4356 34.0467 94.291 34.0093 94.179 33.888C94.0763 33.7667 94.0156 33.58 93.997 33.328C93.9783 33.076 94.0063 32.7773 94.081 32.432C94.1276 32.32 94.165 32.2127 94.193 32.11C94.221 31.998 94.235 31.9093 94.235 31.844C94.2536 31.7507 94.291 31.6153 94.347 31.438C94.403 31.2513 94.4636 31.06 94.529 30.864C94.5943 30.668 94.655 30.4953 94.711 30.346C94.7763 30.1873 94.8183 30.0893 94.837 30.052C94.8743 30.052 94.907 30.0193 94.935 29.954C94.963 29.8887 94.977 29.8233 94.977 29.758C94.977 29.6833 94.991 29.5993 95.019 29.506C95.0563 29.4127 95.0936 29.3473 95.131 29.31C95.131 29.2633 95.1403 29.212 95.159 29.156C95.187 29.0907 95.201 29.0393 95.201 29.002C95.201 28.9647 95.2103 28.9273 95.229 28.89C95.257 28.8527 95.271 28.8153 95.271 28.778C95.3363 28.6567 95.4203 28.4653 95.523 28.204C95.635 27.9333 95.7516 27.6347 95.873 27.308C96.0036 26.9813 96.125 26.6593 96.237 26.342C96.349 26.0247 96.4376 25.7587 96.503 25.544C96.5776 25.32 96.615 25.1847 96.615 25.138C96.615 25.0633 96.6336 25.0073 96.671 24.97C96.7083 24.9327 96.7643 24.914 96.839 24.914C96.867 24.886 96.8996 24.8673 96.937 24.858C96.9836 24.8487 97.0256 24.844 97.063 24.844C97.063 24.844 97.0816 24.8627 97.119 24.9C97.1563 24.9373 97.2123 24.9933 97.287 25.068C97.3616 25.1333 97.4036 25.208 97.413 25.292C97.4316 25.376 97.441 25.474 97.441 25.586C97.441 25.7073 97.427 25.8147 97.399 25.908C97.371 26.0013 97.315 26.1367 97.231 26.314C97.147 26.4913 97.0163 26.7667 96.839 27.14C96.7643 27.3267 96.685 27.504 96.601 27.672C96.517 27.8307 96.475 27.9287 96.475 27.966C96.475 28.0033 96.4563 28.0593 96.419 28.134C96.391 28.2087 96.3583 28.302 96.321 28.414C96.2836 28.4887 96.2323 28.6007 96.167 28.75C96.1016 28.89 96.0316 29.044 95.957 29.212C95.8916 29.3707 95.8356 29.5107 95.789 29.632C95.7423 29.744 95.719 29.8093 95.719 29.828C95.719 29.8653 95.7143 29.9027 95.705 29.94C95.705 29.9773 95.6863 30.0147 95.649 30.052C95.6116 30.052 95.5883 30.08 95.579 30.136C95.579 30.1827 95.579 30.206 95.579 30.206C95.579 30.2993 95.5043 30.5467 95.355 30.948C95.2056 31.4613 95.0656 31.9327 94.935 32.362C94.8136 32.7913 94.753 33.1367 94.753 33.398C94.753 33.622 94.7483 33.7713 94.739 33.846C94.7296 33.9113 94.6876 33.9627 94.613 34ZM96.7122 33.552C96.6375 33.4773 96.5815 33.384 96.5442 33.272C96.5162 33.16 96.5069 33.048 96.5162 32.936C96.5255 32.824 96.5489 32.7307 96.5862 32.656C96.5862 32.5813 96.5955 32.5253 96.6142 32.488C96.6422 32.4413 96.6515 32.3993 96.6422 32.362C96.6329 32.3247 96.6422 32.2593 96.6702 32.166C96.6982 32.0727 96.7262 31.984 96.7542 31.9C96.8195 31.7507 96.8895 31.5733 96.9642 31.368C97.0389 31.1533 97.1089 30.9433 97.1742 30.738C97.2395 30.5327 97.2955 30.3553 97.3422 30.206C97.3889 30.0567 97.4169 29.9633 97.4262 29.926C97.4262 29.814 97.5009 29.7533 97.6502 29.744C97.7622 29.7067 97.8462 29.7067 97.9022 29.744C97.9582 29.772 98.0329 29.8607 98.1262 30.01C98.2009 30.0847 98.2289 30.1967 98.2102 30.346C98.1915 30.4953 98.1309 30.682 98.0282 30.906C97.9909 30.9807 97.9442 31.088 97.8882 31.228C97.8415 31.368 97.8089 31.494 97.7902 31.606C97.7529 31.6807 97.7062 31.788 97.6502 31.928C97.6035 32.0587 97.5615 32.1847 97.5242 32.306C97.5055 32.3527 97.4869 32.4227 97.4682 32.516C97.4495 32.6 97.4262 32.6933 97.3982 32.796C97.3702 32.8893 97.3329 32.9733 97.2862 33.048C97.2022 33.4307 97.1229 33.6547 97.0482 33.72C96.9829 33.7853 96.8709 33.7293 96.7122 33.552ZM98.0702 27.868C98.0235 27.8213 97.9815 27.756 97.9442 27.672C97.9069 27.5787 97.8835 27.4947 97.8742 27.42C97.8649 27.336 97.8742 27.294 97.9022 27.294C97.9769 27.2847 98.0655 27.2053 98.1682 27.056C98.2709 26.9067 98.3129 26.776 98.2942 26.664C98.2942 26.6267 98.3082 26.594 98.3362 26.566C98.3642 26.5287 98.3969 26.5053 98.4342 26.496C98.5462 26.4213 98.6535 26.412 98.7562 26.468C98.8682 26.5147 98.9709 26.6127 99.0642 26.762C99.1482 26.9393 99.1715 27.0887 99.1342 27.21C99.0969 27.322 98.9942 27.4807 98.8262 27.686C98.6862 27.8727 98.5555 27.9753 98.4342 27.994C98.3222 28.0127 98.2009 27.9707 98.0702 27.868ZM100.374 33.398C100.318 33.4073 100.276 33.4027 100.248 33.384C100.22 33.356 100.192 33.3233 100.164 33.286C100.08 33.1927 99.9862 33.132 99.8835 33.104C99.7902 33.0667 99.7575 33.0153 99.7855 32.95C99.7855 32.95 99.8042 32.9173 99.8415 32.852C99.8789 32.7867 99.9302 32.726 99.9955 32.67C100.154 32.5953 100.313 32.53 100.472 32.474C100.64 32.4087 100.85 32.32 101.102 32.208C101.363 32.096 101.708 31.9327 102.138 31.718C102.399 31.578 102.623 31.466 102.81 31.382C103.006 31.298 103.155 31.214 103.258 31.13C103.37 31.0367 103.421 30.9293 103.412 30.808C103.337 30.6213 103.09 30.3973 102.67 30.136C102.25 29.8747 101.685 29.6133 100.976 29.352C100.742 29.268 100.532 29.1747 100.346 29.072C100.159 28.9693 100.038 28.8713 99.9815 28.778C99.9255 28.6753 99.9675 28.5913 100.108 28.526C100.164 28.5167 100.238 28.5073 100.332 28.498C100.425 28.4793 100.546 28.4747 100.696 28.484C100.854 28.484 101.036 28.5167 101.242 28.582C101.587 28.7033 101.844 28.792 102.012 28.848C102.189 28.904 102.366 29.0067 102.544 29.156C102.87 29.296 103.136 29.4547 103.342 29.632C103.547 29.8093 103.748 30.0287 103.944 30.29L104.42 30.934L104.49 31.354C104.415 31.3633 104.303 31.41 104.154 31.494C104.004 31.5687 103.92 31.6107 103.902 31.62C103.799 31.6947 103.678 31.7693 103.538 31.844C103.398 31.9187 103.211 32.012 102.978 32.124C102.754 32.236 102.45 32.3853 102.068 32.572C101.657 32.7213 101.377 32.8473 101.228 32.95C101.078 33.0527 100.938 33.1367 100.808 33.202C100.742 33.2487 100.663 33.2953 100.57 33.342C100.486 33.3887 100.42 33.4073 100.374 33.398ZM34.166 51.23C33.802 51.1273 33.5313 51.0527 33.354 51.006C33.1767 50.95 32.9993 50.8567 32.822 50.726C32.4767 50.614 32.1967 50.4787 31.982 50.32C31.7673 50.152 31.5527 49.9513 31.338 49.718L30.82 49.102L30.722 48.682C30.7967 48.6633 30.904 48.612 31.044 48.528C31.184 48.4347 31.2633 48.3833 31.282 48.374C31.3847 48.29 31.5013 48.206 31.632 48.122C31.7627 48.0287 31.94 47.9167 32.164 47.786C32.388 47.6553 32.6867 47.4873 33.06 47.282C33.452 47.0953 33.7227 46.9507 33.872 46.848C34.0213 46.7453 34.152 46.6567 34.264 46.582C34.3293 46.5353 34.404 46.484 34.488 46.428C34.5813 46.372 34.6467 46.3487 34.684 46.358C34.74 46.3487 34.782 46.3533 34.81 46.372C34.838 46.3813 34.8707 46.4047 34.908 46.442C34.9827 46.5353 35.0667 46.596 35.16 46.624C35.2627 46.6427 35.314 46.6893 35.314 46.764C35.314 46.764 35.2953 46.8013 35.258 46.876C35.2207 46.9413 35.1647 46.9973 35.09 47.044C34.95 47.1187 34.8007 47.1933 34.642 47.268C34.4833 47.3427 34.2827 47.4453 34.04 47.576C33.7973 47.7067 33.466 47.898 33.046 48.15C32.794 48.2993 32.57 48.4253 32.374 48.528C32.1873 48.6307 32.0427 48.7287 31.94 48.822C31.8467 48.906 31.8093 49.0087 31.828 49.13C31.912 49.3167 32.1733 49.5267 32.612 49.76C33.06 49.9933 33.6387 50.2173 34.348 50.432C34.6 50.488 34.8193 50.5627 35.006 50.656C35.1927 50.7493 35.3187 50.8427 35.384 50.936C35.4493 51.0293 35.4167 51.1133 35.286 51.188C35.2393 51.1973 35.1647 51.216 35.062 51.244C34.9687 51.2627 34.8473 51.2767 34.698 51.286C34.558 51.286 34.3807 51.2673 34.166 51.23ZM36.186 53.316C35.906 53.3253 35.7474 53.176 35.71 52.868C35.6727 52.56 35.766 52.1633 35.99 51.678C36.046 51.5753 36.102 51.4773 36.158 51.384C36.214 51.2813 36.2467 51.1973 36.256 51.132C36.284 51.076 36.3587 50.9313 36.48 50.698C36.6107 50.4553 36.7647 50.166 36.942 49.83C37.1287 49.494 37.32 49.144 37.516 48.78C37.7214 48.416 37.9127 48.0753 38.09 47.758C38.2674 47.4313 38.4167 47.1607 38.538 46.946C38.6594 46.7313 38.7294 46.6147 38.748 46.596C38.7854 46.6053 38.8227 46.582 38.86 46.526C38.9067 46.4607 38.9347 46.3953 38.944 46.33C38.9627 46.2553 38.9954 46.176 39.042 46.092C39.098 46.008 39.1447 45.9567 39.182 45.938C39.2007 45.8913 39.224 45.84 39.252 45.784C39.2894 45.728 39.3127 45.6813 39.322 45.644C39.3314 45.6067 39.35 45.574 39.378 45.546C39.406 45.5087 39.4247 45.4713 39.434 45.434C39.5087 45.35 39.6067 45.2193 39.728 45.042C39.8494 44.8553 39.9847 44.6453 40.134 44.412C40.2927 44.1787 40.4467 43.9407 40.596 43.698C40.7547 43.4553 40.8994 43.2267 41.03 43.012C41.1607 42.7973 41.268 42.6153 41.352 42.466C41.436 42.3167 41.4827 42.2233 41.492 42.186C41.52 42.046 41.6134 41.99 41.772 42.018C41.8187 41.9807 41.8934 41.9713 41.996 41.99C41.996 41.99 42.0054 42.0133 42.024 42.06C42.052 42.0973 42.0987 42.1627 42.164 42.256C42.2294 42.34 42.2574 42.424 42.248 42.508C42.248 42.592 42.234 42.6853 42.206 42.788C42.1874 42.9093 42.1547 43.0167 42.108 43.11C42.0614 43.194 41.9774 43.3153 41.856 43.474C41.7347 43.6233 41.548 43.8613 41.296 44.188C41.24 44.272 41.1794 44.356 41.114 44.44C41.058 44.5147 41.002 44.5847 40.946 44.65C40.8994 44.706 40.862 44.7573 40.834 44.804C40.806 44.8413 40.792 44.8693 40.792 44.888C40.7827 44.9253 40.75 44.9813 40.694 45.056C40.6474 45.1213 40.596 45.2053 40.54 45.308C40.484 45.3733 40.4094 45.4713 40.316 45.602C40.2227 45.7327 40.1247 45.868 40.022 46.008C39.9287 46.148 39.8447 46.274 39.77 46.386C39.6954 46.4887 39.658 46.5493 39.658 46.568C39.6487 46.596 39.6347 46.6287 39.616 46.666C39.6067 46.7033 39.5787 46.736 39.532 46.764C39.4947 46.7547 39.4667 46.778 39.448 46.834C39.4387 46.8807 39.434 46.904 39.434 46.904C39.434 46.9787 39.3127 47.2073 39.07 47.59C38.9674 47.7767 38.8134 48.0567 38.608 48.43C38.412 48.8033 38.1927 49.2187 37.95 49.676C37.7167 50.124 37.488 50.5673 37.264 51.006C37.04 51.4353 36.8487 51.8087 36.69 52.126C36.5407 52.4433 36.4567 52.6533 36.438 52.756C36.4007 52.9707 36.368 53.1107 36.34 53.176C36.312 53.2507 36.2607 53.2973 36.186 53.316ZM42.2351 51.79C42.1138 51.79 42.0158 51.7667 41.9411 51.72C41.8758 51.6733 41.7918 51.608 41.6891 51.524C41.5118 51.3373 41.3858 51.16 41.3111 50.992C41.2365 50.8147 41.2131 50.6467 41.2411 50.488C41.2691 50.4133 41.2785 50.3433 41.2691 50.278C41.2691 50.2033 41.2691 50.166 41.2691 50.166C41.2225 50.1193 41.2085 50.0913 41.2271 50.082C41.2458 50.0633 41.2645 50.0353 41.2831 49.998C41.3391 49.998 41.3578 49.9467 41.3391 49.844C41.3205 49.7693 41.3578 49.606 41.4511 49.354C41.5445 49.102 41.6611 48.864 41.8011 48.64C41.8571 48.5467 41.9411 48.4253 42.0531 48.276C42.1651 48.1173 42.2865 47.9633 42.4171 47.814C42.5571 47.6553 42.6831 47.5293 42.7951 47.436C43.0285 47.24 43.2338 47.0953 43.4111 47.002C43.5885 46.9087 43.7798 46.8387 43.9851 46.792C44.1905 46.7453 44.3305 46.722 44.4051 46.722C44.4891 46.722 44.6011 46.7967 44.7411 46.946C44.9558 47.0393 45.1098 47.1513 45.2031 47.282C45.3058 47.4127 45.3711 47.604 45.3991 47.856C45.4271 48.136 45.4038 48.458 45.3291 48.822C45.2638 49.1767 45.0445 49.62 44.6711 50.152C44.4378 50.488 44.2231 50.74 44.0271 50.908C43.8311 51.0667 43.5978 51.2253 43.3271 51.384C43.1311 51.5147 42.9538 51.6127 42.7951 51.678C42.6365 51.734 42.4498 51.7713 42.2351 51.79ZM43.5791 50.306C43.8031 50.054 43.9805 49.816 44.1111 49.592C44.2511 49.368 44.3818 49.0833 44.5031 48.738C44.5405 48.6353 44.5638 48.5093 44.5731 48.36C44.5825 48.2013 44.5778 48.0567 44.5591 47.926C44.5498 47.786 44.5171 47.7067 44.4611 47.688C44.3491 47.6227 44.2138 47.604 44.0551 47.632C43.8965 47.6507 43.7238 47.7393 43.5371 47.898C43.2478 48.1407 42.9958 48.444 42.7811 48.808C42.5665 49.1627 42.3565 49.5687 42.1511 50.026C42.0111 50.362 41.9785 50.6327 42.0531 50.838C42.1371 51.034 42.3098 51.104 42.5711 51.048C42.8418 50.9827 43.1778 50.7353 43.5791 50.306ZM46.6247 52C46.4474 52.0467 46.3027 52.0093 46.1907 51.888C46.088 51.7667 46.0274 51.58 46.0087 51.328C45.99 51.076 46.018 50.7773 46.0927 50.432C46.1394 50.32 46.1767 50.2127 46.2047 50.11C46.2327 49.998 46.2467 49.9093 46.2467 49.844C46.2654 49.7507 46.3027 49.6153 46.3587 49.438C46.4147 49.2513 46.4754 49.06 46.5407 48.864C46.606 48.668 46.6667 48.4953 46.7227 48.346C46.788 48.1873 46.83 48.0893 46.8487 48.052C46.886 48.052 46.9187 48.0193 46.9467 47.954C46.9747 47.8887 46.9887 47.8233 46.9887 47.758C46.9887 47.6833 47.0027 47.5993 47.0307 47.506C47.068 47.4127 47.1054 47.3473 47.1427 47.31C47.1427 47.2633 47.152 47.212 47.1707 47.156C47.1987 47.0907 47.2127 47.0393 47.2127 47.002C47.2127 46.9647 47.222 46.9273 47.2407 46.89C47.2687 46.8527 47.2827 46.8153 47.2827 46.778C47.348 46.6567 47.432 46.4653 47.5347 46.204C47.6467 45.9333 47.7634 45.6347 47.8847 45.308C48.0154 44.9813 48.1367 44.6593 48.2487 44.342C48.3607 44.0247 48.4494 43.7587 48.5147 43.544C48.5894 43.32 48.6267 43.1847 48.6267 43.138C48.6267 43.0633 48.6454 43.0073 48.6827 42.97C48.72 42.9327 48.776 42.914 48.8507 42.914C48.8787 42.886 48.9114 42.8673 48.9487 42.858C48.9954 42.8487 49.0374 42.844 49.0747 42.844C49.0747 42.844 49.0934 42.8627 49.1307 42.9C49.168 42.9373 49.224 42.9933 49.2987 43.068C49.3734 43.1333 49.4154 43.208 49.4247 43.292C49.4434 43.376 49.4527 43.474 49.4527 43.586C49.4527 43.7073 49.4387 43.8147 49.4107 43.908C49.3827 44.0013 49.3267 44.1367 49.2427 44.314C49.1587 44.4913 49.028 44.7667 48.8507 45.14C48.776 45.3267 48.6967 45.504 48.6127 45.672C48.5287 45.8307 48.4867 45.9287 48.4867 45.966C48.4867 46.0033 48.468 46.0593 48.4307 46.134C48.4027 46.2087 48.37 46.302 48.3327 46.414C48.2954 46.4887 48.244 46.6007 48.1787 46.75C48.1134 46.89 48.0434 47.044 47.9687 47.212C47.9034 47.3707 47.8474 47.5107 47.8007 47.632C47.754 47.744 47.7307 47.8093 47.7307 47.828C47.7307 47.8653 47.726 47.9027 47.7167 47.94C47.7167 47.9773 47.698 48.0147 47.6607 48.052C47.6234 48.052 47.6 48.08 47.5907 48.136C47.5907 48.1827 47.5907 48.206 47.5907 48.206C47.5907 48.2993 47.516 48.5467 47.3667 48.948C47.2174 49.4613 47.0774 49.9327 46.9467 50.362C46.8254 50.7913 46.7647 51.1367 46.7647 51.398C46.7647 51.622 46.76 51.7713 46.7507 51.846C46.7414 51.9113 46.6994 51.9627 46.6247 52ZM49.7739 51.398C49.7179 51.4073 49.6759 51.4027 49.6479 51.384C49.6199 51.356 49.5919 51.3233 49.5639 51.286C49.4799 51.1927 49.3866 51.132 49.2839 51.104C49.1906 51.0667 49.1579 51.0153 49.1859 50.95C49.1859 50.95 49.2046 50.9173 49.2419 50.852C49.2793 50.7867 49.3306 50.726 49.3959 50.67C49.5546 50.5953 49.7133 50.53 49.8719 50.474C50.0399 50.4087 50.2499 50.32 50.5019 50.208C50.7633 50.096 51.1086 49.9327 51.5379 49.718C51.7993 49.578 52.0233 49.466 52.2099 49.382C52.4059 49.298 52.5553 49.214 52.6579 49.13C52.7699 49.0367 52.8213 48.9293 52.8119 48.808C52.7373 48.6213 52.4899 48.3973 52.0699 48.136C51.6499 47.8747 51.0853 47.6133 50.3759 47.352C50.1426 47.268 49.9326 47.1747 49.7459 47.072C49.5593 46.9693 49.4379 46.8713 49.3819 46.778C49.3259 46.6753 49.3679 46.5913 49.5079 46.526C49.5639 46.5167 49.6386 46.5073 49.7319 46.498C49.8253 46.4793 49.9466 46.4747 50.0959 46.484C50.2546 46.484 50.4366 46.5167 50.6419 46.582C50.9873 46.7033 51.2439 46.792 51.4119 46.848C51.5893 46.904 51.7666 47.0067 51.9439 47.156C52.2706 47.296 52.5366 47.4547 52.7419 47.632C52.9473 47.8093 53.1479 48.0287 53.3439 48.29L53.8199 48.934L53.8899 49.354C53.8153 49.3633 53.7033 49.41 53.5539 49.494C53.4046 49.5687 53.3206 49.6107 53.3019 49.62C53.1993 49.6947 53.0779 49.7693 52.9379 49.844C52.7979 49.9187 52.6113 50.012 52.3779 50.124C52.1539 50.236 51.8506 50.3853 51.4679 50.572C51.0573 50.7213 50.7773 50.8473 50.6279 50.95C50.4786 51.0527 50.3386 51.1367 50.2079 51.202C50.1426 51.2487 50.0633 51.2953 49.9699 51.342C49.8859 51.3887 49.8206 51.4073 49.7739 51.398Z" fill="black"/>
</svg>
