<svg width="668" height="112" viewBox="0 0 668 112" fill="none" xmlns="http://www.w3.org/2000/svg">
<path d="M8.15542 1C0.155417 20.6667 -7.84458 63 24.1554 75C64.1554 90 95.1554 35 95.1554 28C95.1554 16.5 71.1554 16 83.1554 40C95.1554 64 121.155 67 133.155 67C143.203 67 167.851 62.087 175.155 43.5M175.155 43.5C176.575 39.8884 179.481 32.3927 179.155 28C177.155 1 151.381 22.5 175.155 43.5ZM175.155 43.5C179.489 49.8333 191.955 62.7 207.155 63.5C222.355 64.3 230.489 53.8333 232.655 48.5C236.489 60 256.504 81.0991 274.5 77.5C299.5 72.5 315.534 17.1417 309.5 13C297.845 5 300.155 78 329.655 90.5C359.155 103 379.155 39 371.655 33.5C364.155 28 368.831 57.4747 378.155 63.5C397.5 76 426.655 61.5 420.655 21C426.155 46.8333 466.5 80 495 70C515.265 62.8893 534.655 21 527.155 21C519.655 21 541 83 577 43.5C594.667 69.8333 633.4 103 651 21C652.333 15 647.084 11.5 644.5 15.5C641.613 19.97 661.655 50.5 666.655 42" stroke="black"/>
<path d="M29 81.5C29 79.0147 31.0147 77 33.5 77C35.9853 77 38 79.0147 38 81.5V87H29V81.5Z" fill="#181818"/>
<g filter="url(#filter0_d_58_41)">
<circle cx="33.5" cy="92.5" r="8.5" fill="#FF4949"/>
</g>
<path d="M442.722 60.6347C443.613 58.3145 446.216 57.1556 448.536 58.0462C450.856 58.9369 452.015 61.5398 451.125 63.86L449.154 68.9947L440.751 65.7694L442.722 60.6347Z" fill="#181818"/>
<g filter="url(#filter1_d_58_41)">
<circle cx="442.982" cy="72.5167" r="8.5" transform="rotate(21 442.982 72.5167)" fill="#FF4949"/>
</g>
<path d="M252.22 77.4282C252.905 75.0392 255.397 73.6579 257.786 74.3429C260.175 75.0279 261.556 77.5199 260.871 79.909L259.355 85.1959L250.704 82.7152L252.22 77.4282Z" fill="#181818"/>
<g filter="url(#filter2_d_58_41)">
<circle cx="253.514" cy="89.2424" r="8.5" transform="rotate(16 253.514 89.2424)" fill="#FF4949"/>
</g>
<path d="M613.587 78.2655C613.241 75.8044 614.956 73.5289 617.417 73.183C619.878 72.8372 622.154 74.5519 622.5 77.013L623.265 82.4594L614.353 83.712L613.587 78.2655Z" fill="#181818"/>
<g filter="url(#filter3_d_58_41)">
<circle cx="619.574" cy="88.5322" r="8.5" transform="rotate(-8 619.574 88.5322)" fill="#FF4949"/>
</g>
<path d="M201 67.5C201 65.0147 203.015 63 205.5 63C207.985 63 210 65.0147 210 67.5V73H201V67.5Z" fill="#181818"/>
<g filter="url(#filter4_d_58_41)">
<circle cx="205.5" cy="78.5" r="8.5" fill="#FC7C34"/>
</g>
<path d="M578.084 54.8863C579.307 52.7232 582.053 51.9618 584.216 53.1856C586.379 54.4094 587.141 57.1551 585.917 59.3181L583.209 64.1051L575.375 59.6733L578.084 54.8863Z" fill="#181818"/>
<g filter="url(#filter5_d_58_41)">
<circle cx="576.584" cy="66.6762" r="8.5" transform="rotate(29.5 576.584 66.6762)" fill="#FC7C34"/>
</g>
<path d="M391 71.5C391 69.0147 393.015 67 395.5 67C397.985 67 400 69.0147 400 71.5V77H391V71.5Z" fill="#181818"/>
<g filter="url(#filter6_d_58_41)">
<circle cx="395.5" cy="82.5" r="8.5" fill="#FC7C34"/>
</g>
<path d="M96.737 61.7547C97.7691 59.4939 100.439 58.4978 102.699 59.53C104.96 60.5621 105.956 63.2316 104.924 65.4924L102.64 70.4957L94.4529 66.758L96.737 61.7547Z" fill="#181818"/>
<g filter="url(#filter7_d_58_41)">
<circle cx="96.2624" cy="73.6303" r="8.5" transform="rotate(24.5379 96.2624 73.6303)" fill="#FFED49"/>
</g>
<path d="M354.553 86.6807C353.478 84.44 354.423 81.752 356.664 80.6769C358.904 79.6018 361.592 80.5467 362.667 82.7874L365.047 87.7461L356.932 91.6394L354.553 86.6807Z" fill="#181818"/>
<g filter="url(#filter8_d_58_41)">
<circle cx="363.369" cy="94.6515" r="8.5" transform="rotate(-25.6322 363.369 94.6515)" fill="#FFED49"/>
</g>
<path d="M517.553 50.6807C516.478 48.44 517.423 45.752 519.664 44.6769C521.904 43.6018 524.592 44.5467 525.667 46.7874L528.047 51.7461L519.932 55.6394L517.553 50.6807Z" fill="#181818"/>
<g filter="url(#filter9_d_58_41)">
<circle cx="526.369" cy="58.6515" r="8.5" transform="rotate(-25.6322 526.369 58.6515)" fill="#FFED49"/>
</g>
<path d="M146.924 69.7312C146.128 67.3766 147.393 64.8231 149.747 64.0279C152.102 63.2327 154.655 64.4968 155.45 66.8514L157.21 72.0623L148.684 74.942L146.924 69.7312Z" fill="#181818"/>
<g filter="url(#filter10_d_58_41)">
<circle cx="154.707" cy="78.713" r="8.5" transform="rotate(-18.6615 154.707 78.713)" fill="#65B75E"/>
</g>
<path d="M488.23 76.4233C487.434 74.0687 488.698 71.5153 491.053 70.72C493.408 69.9248 495.961 71.1889 496.756 73.5435L498.516 78.7544L489.989 81.6342L488.23 76.4233Z" fill="#181818"/>
<g filter="url(#filter11_d_58_41)">
<circle cx="496.013" cy="85.4051" r="8.5" transform="rotate(-18.6615 496.013 85.4051)" fill="#65B75E"/>
</g>
<path d="M309.778 79.0202C311.403 77.14 314.245 76.9332 316.125 78.5584C318.005 80.1836 318.212 83.0253 316.587 84.9056L312.99 89.0666L306.181 83.1813L309.778 79.0202Z" fill="#181818"/>
<g filter="url(#filter12_d_58_41)">
<circle cx="305.989" cy="90.285" r="8.5" transform="rotate(40.8385 305.989 90.285)" fill="#65B75E"/>
</g>
<defs>
<filter id="filter0_d_58_41" x="17" y="76" width="33" height="33" filterUnits="userSpaceOnUse" color-interpolation-filters="sRGB">
<feFlood flood-opacity="0" result="BackgroundImageFix"/>
<feColorMatrix in="SourceAlpha" type="matrix" values="0 0 0 0 0 0 0 0 0 0 0 0 0 0 0 0 0 0 127 0" result="hardAlpha"/>
<feMorphology radius="1" operator="dilate" in="SourceAlpha" result="effect1_dropShadow_58_41"/>
<feOffset/>
<feGaussianBlur stdDeviation="3.5"/>
<feComposite in2="hardAlpha" operator="out"/>
<feColorMatrix type="matrix" values="0 0 0 0 1 0 0 0 0 0.2875 0 0 0 0 0.2875 0 0 0 1 0"/>
<feBlend mode="normal" in2="BackgroundImageFix" result="effect1_dropShadow_58_41"/>
<feBlend mode="normal" in="SourceGraphic" in2="effect1_dropShadow_58_41" result="shape"/>
</filter>
<filter id="filter1_d_58_41" x="426.479" y="56.0144" width="33.0046" height="33.0046" filterUnits="userSpaceOnUse" color-interpolation-filters="sRGB">
<feFlood flood-opacity="0" result="BackgroundImageFix"/>
<feColorMatrix in="SourceAlpha" type="matrix" values="0 0 0 0 0 0 0 0 0 0 0 0 0 0 0 0 0 0 127 0" result="hardAlpha"/>
<feMorphology radius="1" operator="dilate" in="SourceAlpha" result="effect1_dropShadow_58_41"/>
<feOffset/>
<feGaussianBlur stdDeviation="3.5"/>
<feComposite in2="hardAlpha" operator="out"/>
<feColorMatrix type="matrix" values="0 0 0 0 1 0 0 0 0 0.2875 0 0 0 0 0.2875 0 0 0 1 0"/>
<feBlend mode="normal" in2="BackgroundImageFix" result="effect1_dropShadow_58_41"/>
<feBlend mode="normal" in="SourceGraphic" in2="effect1_dropShadow_58_41" result="shape"/>
</filter>
<filter id="filter2_d_58_41" x="237.011" y="72.7402" width="33.0044" height="33.0044" filterUnits="userSpaceOnUse" color-interpolation-filters="sRGB">
<feFlood flood-opacity="0" result="BackgroundImageFix"/>
<feColorMatrix in="SourceAlpha" type="matrix" values="0 0 0 0 0 0 0 0 0 0 0 0 0 0 0 0 0 0 127 0" result="hardAlpha"/>
<feMorphology radius="1" operator="dilate" in="SourceAlpha" result="effect1_dropShadow_58_41"/>
<feOffset/>
<feGaussianBlur stdDeviation="3.5"/>
<feComposite in2="hardAlpha" operator="out"/>
<feColorMatrix type="matrix" values="0 0 0 0 1 0 0 0 0 0.2875 0 0 0 0 0.2875 0 0 0 1 0"/>
<feBlend mode="normal" in2="BackgroundImageFix" result="effect1_dropShadow_58_41"/>
<feBlend mode="normal" in="SourceGraphic" in2="effect1_dropShadow_58_41" result="shape"/>
</filter>
<filter id="filter3_d_58_41" x="603.073" y="72.031" width="33.0021" height="33.0022" filterUnits="userSpaceOnUse" color-interpolation-filters="sRGB">
<feFlood flood-opacity="0" result="BackgroundImageFix"/>
<feColorMatrix in="SourceAlpha" type="matrix" values="0 0 0 0 0 0 0 0 0 0 0 0 0 0 0 0 0 0 127 0" result="hardAlpha"/>
<feMorphology radius="1" operator="dilate" in="SourceAlpha" result="effect1_dropShadow_58_41"/>
<feOffset/>
<feGaussianBlur stdDeviation="3.5"/>
<feComposite in2="hardAlpha" operator="out"/>
<feColorMatrix type="matrix" values="0 0 0 0 1 0 0 0 0 0.2875 0 0 0 0 0.2875 0 0 0 1 0"/>
<feBlend mode="normal" in2="BackgroundImageFix" result="effect1_dropShadow_58_41"/>
<feBlend mode="normal" in="SourceGraphic" in2="effect1_dropShadow_58_41" result="shape"/>
</filter>
<filter id="filter4_d_58_41" x="189" y="62" width="33" height="33" filterUnits="userSpaceOnUse" color-interpolation-filters="sRGB">
<feFlood flood-opacity="0" result="BackgroundImageFix"/>
<feColorMatrix in="SourceAlpha" type="matrix" values="0 0 0 0 0 0 0 0 0 0 0 0 0 0 0 0 0 0 127 0" result="hardAlpha"/>
<feMorphology radius="1" operator="dilate" in="SourceAlpha" result="effect1_dropShadow_58_41"/>
<feOffset/>
<feGaussianBlur stdDeviation="3.5"/>
<feComposite in2="hardAlpha" operator="out"/>
<feColorMatrix type="matrix" values="0 0 0 0 0.9875 0 0 0 0 0.487167 0 0 0 0 0.205729 0 0 0 1 0"/>
<feBlend mode="normal" in2="BackgroundImageFix" result="effect1_dropShadow_58_41"/>
<feBlend mode="normal" in="SourceGraphic" in2="effect1_dropShadow_58_41" result="shape"/>
</filter>
<filter id="filter5_d_58_41" x="560.082" y="50.1746" width="33.003" height="33.0032" filterUnits="userSpaceOnUse" color-interpolation-filters="sRGB">
<feFlood flood-opacity="0" result="BackgroundImageFix"/>
<feColorMatrix in="SourceAlpha" type="matrix" values="0 0 0 0 0 0 0 0 0 0 0 0 0 0 0 0 0 0 127 0" result="hardAlpha"/>
<feMorphology radius="1" operator="dilate" in="SourceAlpha" result="effect1_dropShadow_58_41"/>
<feOffset/>
<feGaussianBlur stdDeviation="3.5"/>
<feComposite in2="hardAlpha" operator="out"/>
<feColorMatrix type="matrix" values="0 0 0 0 0.9875 0 0 0 0 0.487167 0 0 0 0 0.205729 0 0 0 1 0"/>
<feBlend mode="normal" in2="BackgroundImageFix" result="effect1_dropShadow_58_41"/>
<feBlend mode="normal" in="SourceGraphic" in2="effect1_dropShadow_58_41" result="shape"/>
</filter>
<filter id="filter6_d_58_41" x="379" y="66" width="33" height="33" filterUnits="userSpaceOnUse" color-interpolation-filters="sRGB">
<feFlood flood-opacity="0" result="BackgroundImageFix"/>
<feColorMatrix in="SourceAlpha" type="matrix" values="0 0 0 0 0 0 0 0 0 0 0 0 0 0 0 0 0 0 127 0" result="hardAlpha"/>
<feMorphology radius="1" operator="dilate" in="SourceAlpha" result="effect1_dropShadow_58_41"/>
<feOffset/>
<feGaussianBlur stdDeviation="3.5"/>
<feComposite in2="hardAlpha" operator="out"/>
<feColorMatrix type="matrix" values="0 0 0 0 0.9875 0 0 0 0 0.487167 0 0 0 0 0.205729 0 0 0 1 0"/>
<feBlend mode="normal" in2="BackgroundImageFix" result="effect1_dropShadow_58_41"/>
<feBlend mode="normal" in="SourceGraphic" in2="effect1_dropShadow_58_41" result="shape"/>
</filter>
<filter id="filter7_d_58_41" x="79.7603" y="57.1282" width="33.0042" height="33.0042" filterUnits="userSpaceOnUse" color-interpolation-filters="sRGB">
<feFlood flood-opacity="0" result="BackgroundImageFix"/>
<feColorMatrix in="SourceAlpha" type="matrix" values="0 0 0 0 0 0 0 0 0 0 0 0 0 0 0 0 0 0 127 0" result="hardAlpha"/>
<feMorphology radius="1" operator="dilate" in="SourceAlpha" result="effect1_dropShadow_58_41"/>
<feOffset/>
<feGaussianBlur stdDeviation="3.5"/>
<feComposite in2="hardAlpha" operator="out"/>
<feColorMatrix type="matrix" values="0 0 0 0 1 0 0 0 0 0.92875 0 0 0 0 0.2875 0 0 0 1 0"/>
<feBlend mode="normal" in2="BackgroundImageFix" result="effect1_dropShadow_58_41"/>
<feBlend mode="normal" in="SourceGraphic" in2="effect1_dropShadow_58_41" result="shape"/>
</filter>
<filter id="filter8_d_58_41" x="346.867" y="78.1497" width="33.0039" height="33.0039" filterUnits="userSpaceOnUse" color-interpolation-filters="sRGB">
<feFlood flood-opacity="0" result="BackgroundImageFix"/>
<feColorMatrix in="SourceAlpha" type="matrix" values="0 0 0 0 0 0 0 0 0 0 0 0 0 0 0 0 0 0 127 0" result="hardAlpha"/>
<feMorphology radius="1" operator="dilate" in="SourceAlpha" result="effect1_dropShadow_58_41"/>
<feOffset/>
<feGaussianBlur stdDeviation="3.5"/>
<feComposite in2="hardAlpha" operator="out"/>
<feColorMatrix type="matrix" values="0 0 0 0 1 0 0 0 0 0.92875 0 0 0 0 0.2875 0 0 0 1 0"/>
<feBlend mode="normal" in2="BackgroundImageFix" result="effect1_dropShadow_58_41"/>
<feBlend mode="normal" in="SourceGraphic" in2="effect1_dropShadow_58_41" result="shape"/>
</filter>
<filter id="filter9_d_58_41" x="509.867" y="42.1497" width="33.0039" height="33.0039" filterUnits="userSpaceOnUse" color-interpolation-filters="sRGB">
<feFlood flood-opacity="0" result="BackgroundImageFix"/>
<feColorMatrix in="SourceAlpha" type="matrix" values="0 0 0 0 0 0 0 0 0 0 0 0 0 0 0 0 0 0 127 0" result="hardAlpha"/>
<feMorphology radius="1" operator="dilate" in="SourceAlpha" result="effect1_dropShadow_58_41"/>
<feOffset/>
<feGaussianBlur stdDeviation="3.5"/>
<feComposite in2="hardAlpha" operator="out"/>
<feColorMatrix type="matrix" values="0 0 0 0 1 0 0 0 0 0.92875 0 0 0 0 0.2875 0 0 0 1 0"/>
<feBlend mode="normal" in2="BackgroundImageFix" result="effect1_dropShadow_58_41"/>
<feBlend mode="normal" in="SourceGraphic" in2="effect1_dropShadow_58_41" result="shape"/>
</filter>
<filter id="filter10_d_58_41" x="138.205" y="62.2107" width="33.0046" height="33.0046" filterUnits="userSpaceOnUse" color-interpolation-filters="sRGB">
<feFlood flood-opacity="0" result="BackgroundImageFix"/>
<feColorMatrix in="SourceAlpha" type="matrix" values="0 0 0 0 0 0 0 0 0 0 0 0 0 0 0 0 0 0 127 0" result="hardAlpha"/>
<feMorphology radius="1" operator="dilate" in="SourceAlpha" result="effect1_dropShadow_58_41"/>
<feOffset/>
<feGaussianBlur stdDeviation="3.5"/>
<feComposite in2="hardAlpha" operator="out"/>
<feColorMatrix type="matrix" values="0 0 0 0 0.397989 0 0 0 0 0.716667 0 0 0 0 0.370278 0 0 0 1 0"/>
<feBlend mode="normal" in2="BackgroundImageFix" result="effect1_dropShadow_58_41"/>
<feBlend mode="normal" in="SourceGraphic" in2="effect1_dropShadow_58_41" result="shape"/>
</filter>
<filter id="filter11_d_58_41" x="479.51" y="68.9028" width="33.0046" height="33.0046" filterUnits="userSpaceOnUse" color-interpolation-filters="sRGB">
<feFlood flood-opacity="0" result="BackgroundImageFix"/>
<feColorMatrix in="SourceAlpha" type="matrix" values="0 0 0 0 0 0 0 0 0 0 0 0 0 0 0 0 0 0 127 0" result="hardAlpha"/>
<feMorphology radius="1" operator="dilate" in="SourceAlpha" result="effect1_dropShadow_58_41"/>
<feOffset/>
<feGaussianBlur stdDeviation="3.5"/>
<feComposite in2="hardAlpha" operator="out"/>
<feColorMatrix type="matrix" values="0 0 0 0 0.397989 0 0 0 0 0.716667 0 0 0 0 0.370278 0 0 0 1 0"/>
<feBlend mode="normal" in2="BackgroundImageFix" result="effect1_dropShadow_58_41"/>
<feBlend mode="normal" in="SourceGraphic" in2="effect1_dropShadow_58_41" result="shape"/>
</filter>
<filter id="filter12_d_58_41" x="289.489" y="73.7849" width="33.0003" height="33.0002" filterUnits="userSpaceOnUse" color-interpolation-filters="sRGB">
<feFlood flood-opacity="0" result="BackgroundImageFix"/>
<feColorMatrix in="SourceAlpha" type="matrix" values="0 0 0 0 0 0 0 0 0 0 0 0 0 0 0 0 0 0 127 0" result="hardAlpha"/>
<feMorphology radius="1" operator="dilate" in="SourceAlpha" result="effect1_dropShadow_58_41"/>
<feOffset/>
<feGaussianBlur stdDeviation="3.5"/>
<feComposite in2="hardAlpha" operator="out"/>
<feColorMatrix type="matrix" values="0 0 0 0 0.397989 0 0 0 0 0.716667 0 0 0 0 0.370278 0 0 0 1 0"/>
<feBlend mode="normal" in2="BackgroundImageFix" result="effect1_dropShadow_58_41"/>
<feBlend mode="normal" in="SourceGraphic" in2="effect1_dropShadow_58_41" result="shape"/>
</filter>
</defs>
</svg>
