<svg width="107" height="82" viewBox="0 0 107 82" fill="none" xmlns="http://www.w3.org/2000/svg">
<path fill-rule="evenodd" clip-rule="evenodd" d="M32 0C14.3269 0 0 14.3269 0 32V36.5381C0 51.7676 10.6389 64.5122 24.89 67.7454C24.8198 67.773 24.7501 67.8005 24.6808 67.8279C24.2665 71.2607 21.8044 78.8011 15.2702 81.5C22.4988 80.2379 37.8351 75.9172 43.0389 68.5381H74.1808C91.8539 68.5381 106.181 54.2112 106.181 36.5381V32C106.181 14.3269 91.854 0 74.1808 0H32Z" fill="#C5E3FF"/>
<path d="M28.284 35.976L40.848 30.468L39.12 28.344L25.008 34.68L26.412 36.984L39.66 43.032L40.38 41.592L28.284 36.12V35.976ZM47.2757 51.816L59.1557 19.164H57.1037L45.1877 51.816H47.2757ZM77.001 35.508L64.437 41.016L66.165 43.14L80.277 36.804L78.909 34.5L65.661 28.452L64.941 29.892L77.001 35.364V35.508Z" fill="black"/>
</svg>
