<svg width="104" height="103" viewBox="0 0 104 103" fill="none" xmlns="http://www.w3.org/2000/svg">
<path d="M100.032 55.0478C99.8899 55.471 99.6763 55.833 99.3907 56.1339C99.1052 56.4349 98.7266 56.6892 98.2551 56.897L95.7367 57.9969L95.8174 56.8357L98.0034 55.845C98.426 55.6498 98.7491 55.4438 98.9727 55.2268C99.2042 55.0103 99.3708 54.7492 99.4722 54.4435C99.5811 54.1464 99.6519 53.7624 99.6847 53.2915L96.0814 53.0409L96.163 51.8677L103.932 52.4081L103.851 53.5812L100.499 53.3481C100.465 53.8269 100.483 54.2011 100.553 54.4706C100.63 54.7406 100.817 54.9942 101.114 55.2313L103.594 57.2683L103.506 58.5373L100.751 56.1203C100.388 55.7984 100.149 55.4409 100.032 55.0478Z" fill="#2420FE"/>
<path d="M95.6683 57.9556C95.6935 57.8383 95.7295 57.7274 95.7765 57.6229L96.6799 57.8168C96.633 57.9213 96.5977 58.0283 96.5742 58.1378C96.5021 58.4741 96.6875 58.7921 97.1305 59.0917C97.5796 59.4008 98.4651 59.6972 99.787 59.9809L101.125 60.2679L100.296 64.128L94.6175 62.9094L94.8441 61.8535L99.8306 62.9235L100.231 61.058L99.4096 60.8817C98.119 60.6048 97.131 60.2332 96.4455 59.767C95.7679 59.3025 95.5088 58.6987 95.6683 57.9556Z" fill="#2420FE"/>
<path d="M97.8279 71.3358L92.3824 69.3159L92.7581 68.3033L96.7746 69.7932L93.8098 65.4681L94.1854 64.4555L99.6308 66.4755L99.2552 67.488L95.1036 65.948L98.1826 70.3795L97.8279 71.3358Z" fill="#2420FE"/>
<path d="M96.9366 73.2193L96.429 74.1726L94.2153 72.9938C94.1589 73.0997 94.135 73.1957 94.1435 73.2818C94.1553 73.3788 94.1843 73.503 94.2306 73.6545L95.2107 76.4605L94.5903 77.6256L93.4056 74.0037C93.3355 74.0842 93.1706 74.1641 92.9109 74.2433C92.6475 74.3296 92.2348 74.4407 91.673 74.5766L89.3228 75.1605L89.9489 73.9848L92.2822 73.4327C92.6026 73.3586 92.8752 73.2636 93.1001 73.1477C93.2671 73.0553 93.3727 72.9847 93.4169 72.9357C93.4682 72.8905 93.5089 72.8397 93.5389 72.7832C93.569 72.7267 93.5897 72.6878 93.601 72.6667L91.3026 71.4427L91.8102 70.4894L96.9366 73.2193Z" fill="#2420FE"/>
<path d="M93.8984 78.6861L93.2695 79.5641L91.3086 78.1595L89.6455 80.4813L91.6064 81.8859L90.9775 82.7639L86.2558 79.3818L86.8847 78.5038L89.0017 80.0201L90.6648 77.6983L88.5478 76.182L89.1768 75.304L93.8984 78.6861Z" fill="#2420FE"/>
<path d="M85.9536 88.2432L81.7582 84.2268L82.5051 83.4467L85.5996 86.4092L84.5962 81.2623L85.3431 80.4822L89.5385 84.4985L88.7917 85.2787L85.5931 82.2166L86.659 87.5064L85.9536 88.2432Z" fill="#2420FE"/>
<path d="M81.932 91.7051L80.4813 92.666L76.3998 89.6982L76.3598 89.7247L77.6 94.5743L76.1993 95.502L72.9922 90.6598L73.8226 90.1098L76.4863 94.1317L76.5364 94.0985L75.3633 89.0894L76.2737 88.4864L80.4882 91.4811L80.5382 91.448L77.8744 87.4262L78.7248 86.8629L81.932 91.7051Z" fill="#2420FE"/>
<path d="M69.4225 92.161C71.0451 91.4388 72.0971 91.6185 72.5786 92.7002L73.5106 94.7941C73.7969 95.4373 73.8192 95.979 73.5773 96.4194C73.3315 96.8704 72.7956 97.2797 71.9697 97.6473C71.1877 97.9954 70.5648 98.1107 70.1009 97.9932C69.6297 97.8789 69.2461 97.4893 68.95 96.8242L68.4279 95.6511L71.9908 94.0651L71.6346 93.2649C71.4719 92.8994 71.2269 92.6932 70.8995 92.6463C70.5722 92.5994 70.1417 92.6947 69.6082 92.9322C69.1039 93.1566 68.5473 93.5095 67.9383 93.9907L67.6016 93.2343C68.209 92.7888 68.8159 92.431 69.4225 92.161ZM69.7025 95.8588L70.0733 96.6919C70.2165 97.0135 70.4128 97.1889 70.6621 97.218C70.9075 97.2576 71.264 97.1733 71.7318 96.9651C72.1849 96.7634 72.4861 96.5549 72.6355 96.3396C72.7881 96.1315 72.7928 95.8667 72.6496 95.5451L72.2788 94.712L69.7025 95.8588Z" fill="#2420FE"/>
<path d="M67.3747 99.3882L66.3356 99.6825L65.6782 97.3618L62.9303 98.1401L63.5877 100.461L62.5485 100.755L60.9657 95.167L62.0049 94.8727L62.7145 97.3781L65.4624 96.5998L64.7528 94.0944L65.7919 93.8L67.3747 99.3882Z" fill="#2420FE"/>
<path d="M55.6999 101.825L54.9412 96.0665L56.012 95.9254L56.2847 97.9955L57.5458 97.8294L58.7364 95.5665L60.1522 95.3799L58.6908 97.8843C59.1523 97.8961 59.5008 97.9995 59.7363 98.1944C59.9648 98.3983 60.1053 98.6985 60.1575 99.0951L60.239 99.7137C60.2934 100.126 60.2786 100.443 60.1947 100.664C60.1029 100.886 59.9235 101.054 59.6563 101.17C59.3902 101.294 58.9835 101.392 58.4362 101.464L55.6999 101.825ZM56.6734 100.946L58.232 100.741C58.5254 100.702 58.7404 100.649 58.8769 100.583C59.0134 100.517 59.1016 100.42 59.1414 100.294C59.1733 100.169 59.1741 99.9912 59.1438 99.7612L59.0905 99.3567C59.0498 99.0473 58.9471 98.8188 58.7823 98.6711C58.6097 98.5244 58.3727 98.4709 58.0713 98.5106L56.3819 98.7332L56.6734 100.946Z" fill="#2420FE"/>
<path d="M27.0271 93.9611C26.7029 93.6544 26.4645 93.3082 26.3118 92.9224C26.1591 92.5367 26.0878 92.0863 26.098 91.571L26.1608 88.8237L27.18 89.3859L27.1581 91.7858C27.1571 92.2513 27.208 92.6311 27.3107 92.9253C27.4095 93.2265 27.5762 93.4874 27.8107 93.7082C28.0344 93.9321 28.3529 94.158 28.7662 94.386L30.5108 91.2233L31.5406 91.7913L27.7788 98.6106L26.7491 98.0425L28.372 95.1005C27.9518 94.8686 27.6048 94.7275 27.3311 94.677C27.0536 94.6336 26.7449 94.6963 26.4051 94.8651L23.5129 96.2573L22.3991 95.6429L25.7514 94.1619C26.1961 93.9687 26.6213 93.9017 27.0271 93.9611Z" fill="#2420FE"/>
<path d="M26.2095 88.7608C26.3052 88.8332 26.3905 88.9127 26.4654 88.9994L25.9083 89.7366C25.8334 89.6499 25.7513 89.5728 25.662 89.5053C25.3875 89.2979 25.021 89.3317 24.5624 89.6068C24.0926 89.8835 23.4501 90.5612 22.635 91.6398L21.8102 92.7312L18.6604 90.351L22.1621 85.7173L23.0238 86.3684L19.9489 90.4372L21.4711 91.5876L21.9776 90.9174C22.7734 89.8643 23.5273 89.1255 24.2393 88.7009C24.9464 88.2826 25.6031 88.3026 26.2095 88.7608Z" fill="#2420FE"/>
<path d="M13.1746 85.0916L17.2963 80.9997L18.0572 81.7661L15.017 84.7843L20.1877 83.9122L20.9486 84.6786L16.8269 88.7705L16.066 88.0041L19.2084 84.8844L13.8932 85.8155L13.1746 85.0916Z" fill="#2420FE"/>
<path d="M11.8773 83.5387L11.223 82.6794L13.2183 81.16C13.1456 81.0646 13.0684 81.0027 12.9866 80.9745C12.8936 80.9448 12.7686 80.9193 12.6116 80.8981L9.65269 80.6172L8.85302 79.567L12.6387 80.0026C12.5948 79.9054 12.591 79.7222 12.6275 79.4531C12.6591 79.1777 12.7304 78.7563 12.8415 78.1891L13.2921 75.8098L14.0991 76.8695L13.6266 79.2202C13.5602 79.5423 13.5327 79.8297 13.5441 80.0824C13.5583 80.2727 13.5784 80.3982 13.6044 80.4588C13.6241 80.5243 13.6533 80.5825 13.6921 80.6334C13.7309 80.6843 13.7575 80.7193 13.7721 80.7384L15.8438 79.1608L16.4981 80.0201L11.8773 83.5387Z" fill="#2420FE"/>
<path d="M8.19212 78.514L7.65656 77.5761L9.75112 76.38L8.33488 73.8999L6.24032 75.096L5.70477 74.1581L10.7484 71.278L11.2839 72.2159L9.02265 73.5072L10.4389 75.9873L12.7002 74.696L13.2357 75.6339L8.19212 78.514Z" fill="#2420FE"/>
<path d="M2.82329 67.2762L8.22988 65.1545L8.62442 66.1598L4.6365 67.7248L9.72911 68.9748L10.1236 69.9802L4.71705 72.1019L4.32252 71.0965L8.44448 69.4789L3.19591 68.2257L2.82329 67.2762Z" fill="#2420FE"/>
<path d="M1.38561 62.2713L1.12526 60.5508L5.53611 58.0993L5.52893 58.0518L0.60817 57.1337L0.356805 55.4727L6.09943 54.6036L6.24845 55.5884L1.47875 56.3102L1.48773 56.3695L6.52495 57.4156L6.68834 58.4953L2.19694 61.0562L2.20592 61.1155L6.97561 60.3937L7.12823 61.4022L1.38561 62.2713Z" fill="#2420FE"/>
<path d="M6.22383 50.5883C6.1964 52.3641 5.59076 53.2429 4.40691 53.2246L2.11518 53.1892C1.41126 53.1783 0.910411 52.9706 0.612623 52.5659C0.306959 52.1532 0.161106 51.4948 0.175063 50.5909C0.18828 49.735 0.345773 49.1214 0.647543 48.75C0.949436 48.3706 1.46434 48.1866 2.19225 48.1978L3.4761 48.2176L3.41589 52.1172L4.29178 52.1307C4.69173 52.1369 4.98186 52.0013 5.16216 51.7241C5.34247 51.4468 5.43712 51.0162 5.44614 50.4323C5.45466 49.8804 5.36874 49.227 5.18838 48.4721L6.01628 48.4849C6.16489 49.2233 6.23408 49.9244 6.22383 50.5883ZM2.75151 49.2866L1.83962 49.2725C1.48766 49.2671 1.24602 49.3713 1.1147 49.5853C0.975506 49.7912 0.901956 50.1501 0.894051 50.6621C0.886393 51.158 0.948827 51.519 1.08135 51.7451C1.20588 51.971 1.44412 52.0867 1.79608 52.0922L2.70797 52.1062L2.75151 49.2866Z" fill="#2420FE"/>
<path d="M0.519856 45.6832L0.68963 44.6166L3.07164 44.9958L3.5206 42.1753L1.13859 41.7961L1.30836 40.7296L7.04415 41.6426L6.87438 42.7092L4.30275 42.2998L3.8538 45.1203L6.42542 45.5296L6.25565 46.5962L0.519856 45.6832Z" fill="#2420FE"/>
<path d="M3.21337 34.0297L8.75767 35.7599L8.43594 36.7908L6.44274 36.1688L6.06381 37.3831L7.61731 39.4141L7.19191 40.7772L5.53305 38.3991C5.32847 38.8129 5.08829 39.0858 4.8125 39.2176C4.53145 39.3394 4.20001 39.3407 3.81817 39.2216L3.2225 39.0357C2.82539 38.9118 2.54424 38.7654 2.37904 38.5965C2.21624 38.42 2.13835 38.1861 2.1454 37.895C2.14481 37.6015 2.22673 37.1913 2.39117 36.6644L3.21337 34.0297ZM3.60186 35.2823L3.13356 36.7829C3.04539 37.0655 3.00276 37.2826 3.00568 37.4344C3.0086 37.5861 3.059 37.7066 3.15687 37.7958C3.25712 37.8774 3.41798 37.9527 3.63945 38.0219L4.02892 38.1434C4.32676 38.2363 4.57731 38.2391 4.78058 38.1517C4.98623 38.0566 5.13434 37.864 5.2249 37.5738L5.73252 35.9472L3.60186 35.2823Z" fill="#2420FE"/>
<path d="M17.7227 15.1922C18.1138 14.9772 18.5163 14.8559 18.9302 14.8284C19.3442 14.8008 19.7949 14.8705 20.2824 15.0375L22.8793 15.9364L22.0327 16.7352L19.7541 15.9813C19.3112 15.8383 18.934 15.7707 18.6225 15.7787C18.3055 15.7808 18.0061 15.8598 17.7243 16.0157C17.4428 16.1603 17.1303 16.3946 16.787 16.7185L19.2658 19.3457L18.4104 20.1528L13.0658 14.4881L13.9212 13.681L16.227 16.125C16.5762 15.7956 16.8166 15.5083 16.9482 15.2631C17.0743 15.0121 17.1089 14.699 17.0519 14.3238L16.6095 11.1446L17.5347 10.2717L17.9211 13.9162C17.9693 14.3986 17.9032 14.824 17.7227 15.1922Z" fill="#2420FE"/>
<path d="M22.9149 16.0002C22.8169 16.0694 22.7152 16.1265 22.6098 16.1714L22.0772 15.4163C22.1826 15.3714 22.281 15.3166 22.3726 15.2521C22.6537 15.0538 22.733 14.6944 22.6106 14.1738C22.4901 13.642 22.0402 12.8237 21.2609 11.7189L20.4725 10.601L23.6987 8.32547L27.0463 13.0717L26.1637 13.6942L23.2242 9.52652L21.665 10.6262L22.1492 11.3127C22.91 12.3914 23.3842 13.3344 23.5719 14.1419C23.755 14.9427 23.536 15.5622 22.9149 16.0002Z" fill="#2420FE"/>
<path d="M30.1183 4.82495L32.772 9.99124L31.8113 10.4847L29.8539 6.67403L29.1214 11.8664L28.1608 12.3599L25.507 7.19356L26.4677 6.7001L28.4909 10.6389L29.211 5.29099L30.1183 4.82495Z" fill="#2420FE"/>
<path d="M32.0814 3.99867L33.0995 3.63832L33.9363 6.0026C34.0494 5.96256 34.1319 5.9079 34.1838 5.83863C34.2405 5.75914 34.303 5.64793 34.3712 5.50498L35.543 2.77347L36.7873 2.33304L35.2155 5.80443C35.3215 5.79235 35.4971 5.84478 35.7422 5.96172C35.9948 6.07598 36.3741 6.27267 36.8803 6.55179L39.008 7.70811L37.7523 8.15255L35.6585 6.98421C35.3722 6.8225 35.1069 6.70846 34.8628 6.64212C34.6773 6.59746 34.5517 6.57827 34.486 6.58454C34.4176 6.58327 34.3533 6.59331 34.293 6.61467C34.2326 6.63602 34.1912 6.6507 34.1685 6.65871L35.0374 9.11349L34.0193 9.47384L32.0814 3.99867Z" fill="#2420FE"/>
<path d="M37.9092 2.02319L38.966 1.80062L39.4631 4.16084L42.2578 3.57228L41.7607 1.21205L42.8175 0.989484L44.0144 6.67282L42.9576 6.89538L42.421 4.34728L39.6263 4.93584L40.1629 7.48395L39.1061 7.70652L37.9092 2.02319Z" fill="#2420FE"/>
<path d="M50.5155 0.307606L50.8739 6.10454L49.7959 6.17117L49.5316 1.89533L46.7777 6.35773L45.6997 6.42436L45.3414 0.62742L46.4194 0.560792L46.6925 4.98036L49.4975 0.370532L50.5155 0.307606Z" fill="#2420FE"/>
<path d="M55.7392 0.447468L57.4565 0.727576L58.4364 5.67788L58.4838 5.68561L60.8675 1.28393L62.5256 1.55438L61.5906 7.28663L60.6076 7.12629L61.3841 2.36521L61.3249 2.35555L58.7837 6.82879L57.7059 6.653L56.6468 1.59249L56.5875 1.58284L55.811 6.34392L54.8043 6.17972L55.7392 0.447468Z" fill="#2420FE"/>
<path d="M65.4783 8.64927C63.7975 8.07563 63.1483 7.22854 63.5308 6.108L64.2711 3.93885C64.4985 3.27259 64.8505 2.8602 65.3273 2.70169C65.8142 2.5382 66.4854 2.60244 67.341 2.89443C68.1511 3.17092 68.6862 3.50995 68.9465 3.91153C69.2143 4.31569 69.2306 4.86227 68.9955 5.55125L68.5808 6.76642L64.8898 5.50674L64.6069 6.33579C64.4777 6.71435 64.5171 7.03213 64.7253 7.28914C64.9334 7.54614 65.3138 7.76896 65.8665 7.95759C66.389 8.13588 67.037 8.25562 67.8107 8.3168L67.5433 9.10042C66.7951 9.01412 66.1067 8.86374 65.4783 8.64927ZM67.7873 5.74754L68.0819 4.88442C68.1956 4.55129 68.1709 4.28927 68.0078 4.09836C67.8549 3.90247 67.5362 3.72183 67.0516 3.55646C66.5822 3.39625 66.2195 3.34433 65.9636 3.40069C65.7103 3.44948 65.5268 3.64044 65.4131 3.97357L65.1185 4.83669L67.7873 5.74754Z" fill="#2420FE"/>
<path d="M71.7479 4.6649L72.7104 5.1548L71.6163 7.30438L74.1616 8.59989L75.2557 6.45032L76.2182 6.94022L73.5836 12.1163L72.6211 11.6264L73.8023 9.30572L71.2571 8.01021L70.0758 10.3309L69.1134 9.84099L71.7479 4.6649Z" fill="#2420FE"/>
<path d="M82.0292 10.8133L78.6817 15.5596L77.7991 14.9371L79.0026 13.2308L77.9631 12.4977L75.5535 13.3532L74.3865 12.5302L77.1589 11.6808C76.8277 11.3592 76.6417 11.0469 76.6009 10.7439C76.5712 10.4391 76.6716 10.1232 76.9021 9.79632L77.2618 9.28639C77.5015 8.94644 77.7271 8.72375 77.9385 8.61833C78.1565 8.51752 78.4029 8.51512 78.6778 8.61112C78.9574 8.70059 79.3227 8.90441 79.7738 9.22256L82.0292 10.8133ZM80.7178 10.7988L79.4332 9.8928C79.1913 9.72219 78.9977 9.615 78.8524 9.57123C78.707 9.52746 78.5769 9.53847 78.462 9.60426C78.3536 9.67465 78.2325 9.80465 78.0988 9.99423L77.8636 10.3276C77.6838 10.5826 77.6043 10.8202 77.6252 11.0405C77.6526 11.2654 77.7905 11.4655 78.0389 11.6407L79.4314 12.6228L80.7178 10.7988Z" fill="#2420FE"/>
</svg>
