<svg width="86" height="40" viewBox="0 0 86 40" fill="none" xmlns="http://www.w3.org/2000/svg">
<path d="M0.34431 0.395275C27.5908 0.482087 82.6475 1.00481 84.903 2.40122L79.6058 4.0853L85.2445 7.57631L78.6778 11.3108L84.8291 15.1192L77.4935 18.3777C78.9907 19.7773 82.3169 22.4985 83.6449 22.1861C85.3048 21.7956 79.4339 23.8336 76.895 27.9345C78.9414 28.256 83.2588 29.1089 84.1571 29.9487C85.2799 30.9984 79.824 32.9388 79.0917 33.549C78.5058 34.0372 81.8255 37.7234 83.5585 39.5055C57.9309 37.8354 6.72339 35.2071 2.18605 37.7134L1.94132 37.9025C1.99546 37.8364 2.07737 37.7735 2.18605 37.7134L6.01807 34.7537L1.78302 30.7135C3.01579 30.0585 5.67176 28.441 6.43344 27.2108L2.2715 25.3431C2.84115 24.0413 4.39544 21.3399 6.05539 20.9494C4.79422 19.9322 2.20109 17.7831 1.91795 17.3242C1.56402 16.7505 9.47328 13.1381 2.68724 10.355L5.15304 4.08154L0.34431 0.395275Z" fill="#DFBF8D" fill-opacity="0.64"/>
</svg>
