<svg width="152" height="73" viewBox="0 0 152 73" fill="none" xmlns="http://www.w3.org/2000/svg">
<path d="M0 42.3102C38.6271 28.2068 116.985 0 121.399 0L115.38 4.17143H126.416L120.396 10.7265H132.436L124.911 17.2816C128.255 17.6789 135.345 18.2351 136.95 17.2816C138.957 16.0898 132.436 20.8571 132.436 25.6245C135.613 24.8299 142.469 23.3004 144.475 23.5388C146.984 23.8367 140.964 28.3061 140.462 29.2C140.061 29.9151 147.987 31.2857 152 31.8816C114.277 43.8122 39.5206 68.2468 35.2962 72.7138L35.1155 73C35.1343 72.9164 35.195 72.8208 35.2962 72.7138L38.1254 68.2327L28.5941 67.0408C29.7646 65.849 32.1056 63.1078 32.1056 61.6776L24.5809 62.2735C24.2464 60.883 24.0792 57.8041 26.0858 56.6122C23.4103 56.4136 17.8587 55.9567 17.0561 55.7184C16.0528 55.4204 24.0792 48.2694 12.0396 49.4612L10.033 42.9061L0 42.3102Z" fill="#A89983" fill-opacity="0.6"/>
</svg>
