<svg width="152" height="123" viewBox="0 0 152 123" fill="none" xmlns="http://www.w3.org/2000/svg">
<path d="M0 71C38.5 47.3333 116.6 0 121 0L115 7H126L120 18H132L124.5 29C127.833 29.6667 134.9 30.6 136.5 29C138.5 27 132 35 132 43C135.167 41.6667 142 39.1 144 39.5C146.5 40 140.5 47.5 140 49C139.6 50.2 147.5 52.5 151.5 53.5C113.901 73.5205 39.3906 114.524 35.1801 122.02L35 122.5C35.0187 122.36 35.0792 122.199 35.1801 122.02L38 114.5L28.5 112.5C29.6667 110.5 32 105.9 32 103.5L24.5 104.5C24.1667 102.167 24 97 26 95C23.3333 94.6667 17.8 93.9 17 93.5C16 93 24 81 12 83L10 72L0 71Z" fill="#D9D9D9" fill-opacity="0.68"/>
</svg>
