<svg width="49" height="40" viewBox="0 0 49 40" fill="none" xmlns="http://www.w3.org/2000/svg">
<path d="M0 22.9637C12.4521 15.3091 37.7122 0 39.1353 0L37.1947 2.26403H40.7525L38.8119 5.82178H42.6931L40.2673 9.37954C41.3454 9.59516 43.631 9.89703 44.1485 9.37954C44.7954 8.73267 42.6931 11.3201 42.6931 13.9076C43.7173 13.4763 45.9274 12.6462 46.5743 12.7756C47.3828 12.9373 45.4422 15.363 45.2805 15.8482C45.1512 16.2363 47.7063 16.9802 49 17.3036C36.8391 23.7789 12.7402 37.0407 11.3784 39.4651L11.3201 39.6205C11.3262 39.5751 11.3458 39.5232 11.3784 39.4651L12.2904 37.033L9.21782 36.3861C9.59516 35.7393 10.3498 34.2515 10.3498 33.4752L7.92409 33.7987C7.81628 33.044 7.76238 31.3729 8.40924 30.7261C7.54675 30.6183 5.7571 30.3703 5.49835 30.2409C5.17492 30.0792 7.76238 26.198 3.88119 26.8449L3.23432 23.2871L0 22.9637Z" fill="#D9D9D9" fill-opacity="0.68"/>
</svg>
