<svg width="159" height="49" viewBox="0 0 159 49" fill="none" xmlns="http://www.w3.org/2000/svg">
<path d="M0.790587 0.312626C36.8066 2.08563 148.267 7.6243 151.445 9.45553L145.226 11.1486L152.014 16.3858L145.583 20.2572L152.554 22.9513L146.182 27.5483C148.358 29.337 156.176 30.174 157.887 29.8765C160.025 29.5046 149.658 31.2416 146.882 36.0585C149.631 36.5736 155.457 37.8721 156.762 38.9454C158.394 40.2869 151.458 42.3057 150.577 43.0008C149.872 43.5569 154.973 45.8365 157.515 48.1034C123.588 44.5281 13.1145 35.8577 4.43425 38.3772L3.93871 38.6269C4.01416 38.5338 4.18082 38.4507 4.43425 38.3772L12.7052 34.2095L6.55423 32.0825C8.09077 31.3638 11.3721 29.5651 12.2049 28.12L5.50185 23.8815C6.07081 22.3378 8.68307 20.8767 10.8214 20.5048C9.0113 19.1943 5.28135 16.4298 4.84241 15.856C4.29375 15.1387 14.2352 11.2427 4.87513 7.45272L8.33016 2.34357L0.790587 0.312626Z" fill="#D9D9D9" fill-opacity="0.68"/>
</svg>
