<svg width="46" height="46" viewBox="0 0 46 46" fill="none" xmlns="http://www.w3.org/2000/svg">
<circle cx="23" cy="23" r="23" fill="#FFED50"/>
<path d="M13.7159 34V29.9545L22.2045 22.5227C22.8409 21.947 23.3826 21.4205 23.8295 20.9432C24.2765 20.4583 24.6174 19.9735 24.8523 19.4886C25.0871 18.9962 25.2045 18.4621 25.2045 17.8864C25.2045 17.2424 25.0644 16.6932 24.7841 16.2386C24.5038 15.7765 24.1174 15.4205 23.625 15.1705C23.1326 14.9205 22.5682 14.7955 21.9318 14.7955C21.2879 14.7955 20.7235 14.928 20.2386 15.1932C19.7538 15.4508 19.375 15.8258 19.1023 16.3182C18.8371 16.8106 18.7045 17.4091 18.7045 18.1136H13.375C13.375 16.5303 13.7311 15.1629 14.4432 14.0114C15.1553 12.8598 16.1553 11.9735 17.4432 11.3523C18.7386 10.7235 20.2424 10.4091 21.9545 10.4091C23.7197 10.4091 25.2538 10.7045 26.5568 11.2955C27.8598 11.8864 28.8674 12.7121 29.5795 13.7727C30.2992 14.8258 30.6591 16.0492 30.6591 17.4432C30.6591 18.3295 30.4811 19.2083 30.125 20.0795C29.7689 20.9508 29.1288 21.9129 28.2045 22.9659C27.2879 24.0189 25.9848 25.2803 24.2955 26.75L21.5114 29.3182V29.4659H30.9432V34H13.7159Z" fill="#45294C"/>
</svg>
