<svg width="46" height="46" viewBox="0 0 46 46" fill="none" xmlns="http://www.w3.org/2000/svg">
<circle cx="23" cy="23" r="23" fill="#FFED50"/>
<path d="M22.625 34.3182C20.928 34.3182 19.4205 34.0114 18.1023 33.3977C16.7841 32.7841 15.7424 31.9394 14.9773 30.8636C14.2197 29.7879 13.8258 28.553 13.7955 27.1591H19.25C19.2955 28.0152 19.6439 28.7045 20.2955 29.2273C20.947 29.7424 21.7235 30 22.625 30C23.3295 30 23.9545 29.8447 24.5 29.5341C25.0455 29.2235 25.4735 28.7879 25.7841 28.2273C26.0947 27.6591 26.2462 27.0076 26.2386 26.2727C26.2462 25.5227 26.0909 24.8674 25.7727 24.3068C25.4621 23.7462 25.0303 23.3106 24.4773 23C23.9318 22.6818 23.303 22.5227 22.5909 22.5227C21.9167 22.5152 21.2765 22.6629 20.6705 22.9659C20.072 23.2689 19.6174 23.6818 19.3068 24.2045L14.3409 23.2727L15.3523 10.7273H30.2841V15.2614H19.9773L19.4432 20.75H19.5795C19.9659 20.1061 20.5871 19.5758 21.4432 19.1591C22.3068 18.7348 23.2879 18.5227 24.3864 18.5227C25.7803 18.5227 27.0227 18.8485 28.1136 19.5C29.2121 20.1439 30.0758 21.0379 30.7045 22.1818C31.3409 23.3258 31.6591 24.6364 31.6591 26.1136C31.6591 27.7121 31.2803 29.1288 30.5227 30.3636C29.7727 31.5985 28.7197 32.5682 27.3636 33.2727C26.0152 33.9697 24.4356 34.3182 22.625 34.3182Z" fill="#45294C"/>
</svg>
