<svg width="43" height="43" viewBox="0 0 43 43" fill="none" xmlns="http://www.w3.org/2000/svg">
<g clip-path="url(#clip0_143_32)">
<path d="M20.9543 -9.76252e-05C20.9543 -9.76252e-05 15.8346 4.16589 15.9316 12.6446C15.8461 16.753 16.8235 21.1142 17.9257 24.8115L13.8477 27.3756L13.8962 31.6149L19.4391 29.6966C19.8502 30.8843 20.2552 31.5422 20.2552 31.5422L22.3749 31.5179C22.3749 31.5179 22.6307 30.72 23.1485 29.6541L28.7339 31.4452L28.6854 27.2058L24.6807 24.6017C25.5671 21.0141 26.5754 16.4977 26.5299 12.5233C26.302 4.17862 20.9543 -9.76252e-05 20.9543 -9.76252e-05ZM23.1952 10.574C23.2073 11.6339 22.2906 12.5718 21.0998 12.7179C20.04 12.7301 19.102 11.8133 18.9559 10.6225C18.9437 9.56269 19.8605 8.62472 21.0513 8.4786C22.1111 8.46647 23.0491 9.38322 23.1952 10.574Z" fill="#415286"/>
<path d="M24.2659 34.6762C24.2901 36.7959 21.3968 38.684 21.3968 38.684C21.3968 38.684 18.461 36.8626 18.4368 34.7429C18.4125 32.6232 19.1953 31.5543 19.1953 31.5543C19.1953 31.5543 17.0908 32.9034 17.249 35.154C17.2975 39.3933 21.5672 41.9944 21.5672 41.9944C21.5672 41.9944 25.7762 39.2963 25.7277 35.057C25.7004 32.6723 23.5656 31.3718 23.5656 31.3718C23.5656 31.3718 24.2416 32.5565 24.2659 34.6762Z" fill="#415286"/>
</g>
<defs>
<clipPath id="clip0_143_32">
<rect width="29.9787" height="29.9787" fill="white" transform="translate(0 21.4392) rotate(-45.6555)"/>
</clipPath>
</defs>
</svg>
