<svg width="46" height="46" viewBox="0 0 46 46" fill="none" xmlns="http://www.w3.org/2000/svg">
<circle cx="23" cy="23" r="23" fill="#FFED50"/>
<path d="M22.5682 34.3182C20.7955 34.3182 19.2235 34.0152 17.8523 33.4091C16.4886 32.7955 15.4129 31.9508 14.625 30.875C13.8371 29.7992 13.4356 28.5606 13.4205 27.1591H19.0795C19.1023 27.6667 19.2652 28.1174 19.5682 28.5114C19.8712 28.8977 20.2841 29.2008 20.8068 29.4205C21.3295 29.6402 21.9242 29.75 22.5909 29.75C23.2576 29.75 23.8447 29.6326 24.3523 29.3977C24.8674 29.1553 25.2689 28.8258 25.5568 28.4091C25.8447 27.9848 25.9848 27.5 25.9773 26.9545C25.9848 26.4091 25.8295 25.9242 25.5114 25.5C25.1932 25.0758 24.7424 24.7462 24.1591 24.5114C23.5833 24.2765 22.9015 24.1591 22.1136 24.1591H19.8523V20.1591H22.1136C22.803 20.1591 23.4091 20.0455 23.9318 19.8182C24.4621 19.5909 24.875 19.2727 25.1705 18.8636C25.4659 18.447 25.6098 17.9697 25.6023 17.4318C25.6098 16.9091 25.4848 16.4508 25.2273 16.0568C24.9773 15.6553 24.625 15.3447 24.1705 15.125C23.7235 14.9053 23.2045 14.7955 22.6136 14.7955C21.9924 14.7955 21.428 14.9053 20.9205 15.125C20.4205 15.3447 20.0227 15.6553 19.7273 16.0568C19.4318 16.4583 19.2765 16.9242 19.2614 17.4545H13.8864C13.9015 16.0682 14.2879 14.8485 15.0455 13.7955C15.803 12.7348 16.8333 11.9053 18.1364 11.3068C19.447 10.7083 20.9394 10.4091 22.6136 10.4091C24.2803 10.4091 25.7462 10.7008 27.0114 11.2841C28.2765 11.8674 29.2614 12.6629 29.9659 13.6705C30.6705 14.6705 31.0227 15.803 31.0227 17.0682C31.0303 18.3788 30.6023 19.4583 29.7386 20.3068C28.8826 21.1553 27.7803 21.678 26.4318 21.875V22.0568C28.2348 22.2689 29.5947 22.8523 30.5114 23.8068C31.4356 24.7614 31.8939 25.9545 31.8864 27.3864C31.8864 28.7348 31.4886 29.9318 30.6932 30.9773C29.9053 32.0152 28.8068 32.8333 27.3977 33.4318C25.9962 34.0227 24.3864 34.3182 22.5682 34.3182Z" fill="#45294C"/>
</svg>
